<?xml version="1.0" encoding="utf-8"?>
<!-- Generator: Adobe Illustrator 25.4.1, SVG Export Plug-In . SVG Version: 6.00 Build 0)  -->
<svg version="1.1" id="Capa_1" xmlns="http://www.w3.org/2000/svg" xmlns:xlink="http://www.w3.org/1999/xlink" x="0px" y="0px"
	 viewBox="0 0 311.2 322.1" style="enable-background:new 0 0 311.2 322.1;" xml:space="preserve">
<style type="text/css">
	.st0{fill:none;stroke:#000000;stroke-miterlimit:10;}
	.st1{fill:none;stroke:#FFFFFF;stroke-miterlimit:10;}
	.st2{enable-background:new    ;}
	.st3{fill:#C58ABC;}
	.st4{fill:#EEEB87;}
	.st5{fill:#FFFFFF;}
</style>
<g>
	<g>
		<g id="XMLID_00000088129012338530259240000014089348905749879202_">
			<g>
				<polygon points="298.8,33.7 298.3,281.5 68.7,313.8 68.7,312.2 69.6,312.7 297.4,280.7 297.9,34.8 296.5,34 				"/>
				<polygon points="298.8,33.7 296.5,34 252.3,10 24.9,41.9 23.5,41.1 253.2,8.9 				"/>
				<polygon points="297.9,34.8 297.4,280.7 251.8,255.9 252.2,41.2 				"/>
				<polygon points="297.9,34.8 252.2,41.2 252.2,40.2 296.5,34 				"/>
				<polygon points="297.4,280.7 69.6,312.7 69.6,281.5 251.8,255.9 				"/>
				<polygon points="296.5,34 252.2,40.2 252.3,10 				"/>
				<polygon points="252.3,10 252.2,40.2 69.1,65.9 24.9,41.9 				"/>
				<polygon points="252.2,40.2 252.2,41.2 70,66.8 69.1,66.3 69.1,65.9 				"/>
				<polygon points="252.2,41.2 251.8,255.9 69.6,281.5 70,66.8 				"/>
				<polygon points="70,66.8 69.6,281.5 68.7,281.6 69.1,66.3 				"/>
				<polygon points="68.7,281.6 69.6,281.5 69.6,312.7 68.7,312.2 				"/>
				<polygon points="69.1,65.9 69.1,66.3 24.4,42 24.9,41.9 				"/>
				<polygon points="69.1,66.3 68.7,281.6 24,287.9 24.4,42 				"/>
				<polygon points="68.7,281.6 68.7,312.2 24,287.9 				"/>
				<polygon points="68.7,312.2 68.7,313.8 23.1,289 23.5,41.1 24.9,41.9 24.4,42 24,287.9 				"/>
			</g>
			<g>
				<polyline class="st0" points="24.4,42 24.9,41.9 252.3,10 				"/>
				<polyline class="st0" points="298.8,33.7 298.3,281.5 68.7,313.8 				"/>
				<polyline class="st0" points="297.9,34.8 252.2,41.2 70,66.8 				"/>
				<polyline class="st0" points="24,287.9 24.4,42 69.1,66.3 70,66.8 69.6,281.5 69.6,312.7 				"/>
				<polyline class="st1" points="69.1,65.9 69.1,66.3 68.7,281.6 68.7,312.2 68.7,313.8 23.1,289 23.5,41.1 				"/>
				<polygon class="st1" points="69.1,65.9 24.9,41.9 23.5,41.1 253.2,8.9 298.8,33.7 296.5,34 252.2,40.2 				"/>
			</g>
		</g>
	</g>
</g>
<g>
	<g class="st2">
		<g>
			<path class="st3" d="M112.3,222.8l-3.1-1.7c2.3-0.3,3.5-1.7,3.5-4.3l3.1,1.7C115.8,221.1,114.6,222.5,112.3,222.8z"/>
		</g>
		<g>
			<path class="st3" d="M123.3,194.7l3.1,1.7c-0.2-0.1-0.5-0.2-0.9-0.1l-3.1-1.7C122.8,194.5,123.1,194.6,123.3,194.7z"/>
		</g>
		<g>
			<polygon class="st3" points="115.8,218.5 112.7,216.8 112.7,208.5 115.8,210.2 			"/>
		</g>
		<g>
			<polygon class="st3" points="106.6,223.6 103.5,221.9 109.1,221.1 112.3,222.8 			"/>
		</g>
		<g>
			<path class="st3" d="M104.4,223.3l-3.1-1.7c0.6,0.3,1.3,0.4,2.2,0.3l3.1,1.7C105.7,223.7,105,223.6,104.4,223.3z"/>
		</g>
		<g>
			<path class="st3" d="M110.4,210.8l-3.1-1.7c-0.4-0.2-0.5-0.6-0.5-1.2l3.1,1.7C109.8,210.1,110,210.5,110.4,210.8z"/>
		</g>
		<g>
			<polygon class="st3" points="111.3,198.3 108.1,196.6 122.4,194.6 125.6,196.3 			"/>
		</g>
		<g>
			<polygon class="st3" points="109.8,209.5 106.7,207.8 106.7,198.3 109.9,200 			"/>
		</g>
		<g>
			<path class="st3" d="M116.4,189.9l-3.1-1.7c-0.4-0.2-0.5-0.6-0.5-1.2l3.1,1.7C115.9,189.3,116,189.7,116.4,189.9z"/>
		</g>
		<g>
			<path class="st3" d="M109.9,200l-3.1-1.7c0-1,0.4-1.6,1.4-1.7l3.1,1.7C110.3,198.4,109.9,199,109.9,200z"/>
		</g>
		<g>
			<polygon class="st3" points="115.9,188.7 112.7,187 112.7,182.3 115.9,184 			"/>
		</g>
		<g>
			<path class="st3" d="M96.5,235.2l-3.1-1.7c-3.2-1.7-4.9-5.4-4.9-11l3.1,1.7C91.6,229.8,93.3,233.5,96.5,235.2z"/>
		</g>
		<g>
			<path class="st3" d="M111.4,179.3l3.1,1.7c0.9,0.5,1.4,1.5,1.4,3l-3.1-1.7C112.7,180.8,112.3,179.7,111.4,179.3z"/>
		</g>
		<g>
			<path class="st3" d="M119,167.4l3.1,1.7c-2-1.1-4.6-1.4-7.8-1l-3.1-1.7C114.3,166,117,166.3,119,167.4z"/>
		</g>
		<g>
			<polygon class="st3" points="104.4,169.5 101.3,167.8 111.2,166.4 114.3,168.1 			"/>
		</g>
		<g>
			<polygon class="st3" points="91.6,224.3 88.5,222.6 88.6,183.3 91.7,185 			"/>
		</g>
		<g>
			<path class="st4" d="M114.3,168.1c8.2-1.2,12.7,3,12.7,11.9l0,7.1c0,1-0.5,1.6-1.4,1.7l-8.3,1.2c-1,0.1-1.4-0.4-1.4-1.3l0-4.7
				c0-2.5-1.2-3.6-3.5-3.3l-5.6,0.8c-2.4,0.3-3.5,1.8-3.5,4.3l-0.1,34.5c0,2.6,1.2,3.6,3.5,3.3l5.6-0.8c2.3-0.3,3.5-1.7,3.5-4.3
				l0-8.3l-4.6,0.6c-1,0.1-1.4-0.4-1.4-1.3l0-9.5c0-1,0.4-1.6,1.4-1.7l14.3-2c0.9-0.1,1.4,0.3,1.4,1.3l0,21.7
				c0,9-4.5,14.4-12.7,15.5l-9.9,1.4c-8.3,1.2-12.7-3-12.7-11.9l0.1-39.3c0-9,4.4-14.3,12.7-15.5L114.3,168.1z"/>
		</g>
		<g>
			<path class="st3" d="M91.7,185l-3.1-1.7c0-9,4.4-14.3,12.7-15.5l3.1,1.7C96.1,170.7,91.7,176.1,91.7,185z"/>
		</g>
	</g>
	<g class="st2">
		<g>
			<path class="st3" d="M167.2,227.2l-3.1-1.7c-0.3-0.2-0.5-0.5-0.6-1l3.1,1.7C166.7,226.6,166.9,227,167.2,227.2z"/>
		</g>
		<g>
			<polygon class="st3" points="166.6,226.1 163.4,224.4 160.6,212.8 163.7,214.5 			"/>
		</g>
		<g>
			<polygon class="st3" points="149.9,205.4 146.8,203.7 157.9,202.2 161,203.9 			"/>
		</g>
		<g>
			<path class="st3" d="M133.5,231.9l-3.1-1.7c-0.4-0.2-0.5-0.7-0.3-1.4l3.1,1.7C133,231.2,133.1,231.7,133.5,231.9z"/>
		</g>
		<g>
			<polygon class="st3" points="161,203.9 157.9,202.2 152.4,177 155.5,178.7 			"/>
		</g>
		<g>
			<path class="st3" d="M159.5,159.9l3.1,1.7c-0.2-0.1-0.5-0.2-0.9-0.1l-3.1-1.7C158.9,159.7,159.2,159.7,159.5,159.9z"/>
		</g>
		<g>
			<polygon class="st3" points="149.5,163.2 146.3,161.5 158.6,159.8 161.7,161.5 			"/>
		</g>
		<g>
			<polygon class="st3" points="133.2,230.5 130,228.8 144.8,163 148,164.7 			"/>
		</g>
		<g>
			<path class="st3" d="M148,164.7l-3.1-1.7c0.2-1,0.7-1.4,1.5-1.5l3.1,1.7C148.7,163.3,148.1,163.8,148,164.7z"/>
		</g>
		<g>
			<path class="st4" d="M177.8,224.3c0.3,1-0.2,1.6-1.2,1.8l-8.6,1.2c-0.8,0.1-1.2-0.3-1.4-1.1l-2.8-11.6l-16.6,2.3l-2.8,12.4
				c-0.2,0.9-0.6,1.4-1.4,1.5l-8.7,1.2c-1,0.1-1.4-0.4-1.1-1.5l14.8-65.8c0.2-1,0.7-1.4,1.5-1.5l12.3-1.7c0.8-0.1,1.3,0.2,1.5,1.1
				L177.8,224.3z M149.9,205.4l11.1-1.6l-5.5-25.1L149.9,205.4"/>
		</g>
	</g>
	<g class="st2">
		<g>
			<path class="st3" d="M222.4,219.3l-3.1-1.7c-0.5-0.2-0.7-0.8-0.7-1.5l3.1,1.7C221.7,218.6,222,219.1,222.4,219.3z"/>
		</g>
		<g>
			<path class="st3" d="M204.5,221.8l-3.1-1.7c-0.4-0.2-0.7-0.6-0.8-1.2l3.1,1.7C203.9,221.2,204.1,221.6,204.5,221.8z"/>
		</g>
		<g>
			<polygon class="st3" points="221.7,217.8 218.6,216.1 218.7,178.7 221.8,180.4 			"/>
		</g>
		<g>
			<path class="st3" d="M229.8,150l3.1,1.7c-0.3-0.2-0.6-0.2-1.1-0.1l-3.1-1.7C229.1,149.9,229.5,149.9,229.8,150z"/>
		</g>
		<g>
			<path class="st3" d="M183.8,224.7l-3.1-1.7c-0.5-0.2-0.7-0.8-0.7-1.5l3.1,1.7C183.1,224,183.4,224.5,183.8,224.7z"/>
		</g>
		<g>
			<polygon class="st3" points="220.2,153.3 217,151.5 228.7,149.9 231.8,151.6 			"/>
		</g>
		<g>
			<polygon class="st3" points="208.3,199 205.2,197.3 215.1,153.5 218.2,155.2 			"/>
		</g>
		<g>
			<path class="st3" d="M218.2,155.2l-3.1-1.7c0.3-1.1,0.9-1.7,1.9-1.9l3.1,1.7C219.1,153.4,218.5,154.1,218.2,155.2z"/>
		</g>
		<g>
			<polygon class="st3" points="203.7,220.6 200.6,218.9 192.3,182.4 195.5,184.1 			"/>
		</g>
		<g>
			<path class="st3" d="M194.7,155l3.1,1.7c-0.3-0.2-0.7-0.2-1.1-0.2l-3.1-1.7C194,154.8,194.4,154.8,194.7,155z"/>
		</g>
		<g>
			<polygon class="st3" points="185,158.2 181.9,156.5 193.5,154.9 196.7,156.6 			"/>
		</g>
		<g>
			<polygon class="st3" points="183.2,223.2 180,221.5 180.1,158.6 183.3,160.4 			"/>
		</g>
		<g>
			<path class="st4" d="M231.8,151.6c1.1-0.2,1.8,0.4,1.8,1.7l-0.1,62.9c0,1.2-0.6,2-1.8,2.1l-8.2,1.2c-1.1,0.2-1.8-0.4-1.8-1.7
				l0.1-37.4l-0.6,0.1l-8.4,38.9c-0.3,1.1-0.9,1.7-1.9,1.9l-5.2,0.7c-1.1,0.2-1.7-0.3-1.9-1.3l-8.2-36.6l-0.6,0.1l-0.1,37.4
				c0,1.2-0.6,2-1.8,2.1l-8.1,1.1c-1.1,0.2-1.8-0.4-1.8-1.7l0.1-62.9c0-1.2,0.6-2,1.8-2.1l11.7-1.6c1.1-0.2,1.7,0.3,1.9,1.3
				l9.7,41.1l9.9-43.9c0.3-1.1,0.9-1.7,1.9-1.9L231.8,151.6z"/>
		</g>
		<g>
			<path class="st3" d="M183.3,160.4l-3.1-1.7c0-1.2,0.6-2,1.8-2.1l3.1,1.7C183.9,158.4,183.3,159.1,183.3,160.4z"/>
		</g>
	</g>
	<g class="st2">
		<g>
			<path class="st3" d="M273.9,197.9l3.1,1.7c-0.2-0.1-0.5-0.2-0.9-0.1l-3.1-1.7C273.4,197.7,273.7,197.8,273.9,197.9z"/>
		</g>
		<g>
			<path class="st3" d="M268.6,171.9l3.1,1.7c-0.2-0.1-0.5-0.2-0.8-0.1l-3.1-1.7C268.1,171.7,268.4,171.7,268.6,171.9z"/>
		</g>
		<g>
			<polygon class="st3" points="254.3,202.6 251.2,200.8 273,197.8 276.1,199.5 			"/>
		</g>
		<g>
			<path class="st3" d="M242.9,216.5l-3.1-1.7c-0.4-0.2-0.6-0.6-0.6-1.2l3.1,1.7C242.3,215.9,242.5,216.3,242.9,216.5z"/>
		</g>
		<g>
			<path class="st3" d="M274,143.8l3.1,1.7c-0.2-0.1-0.5-0.2-0.9-0.1l-3.1-1.7C273.5,143.6,273.8,143.7,274,143.8z"/>
		</g>
		<g>
			<polygon class="st3" points="254.4,175.8 251.2,174.1 267.8,171.8 271,173.5 			"/>
		</g>
		<g>
			<polygon class="st3" points="243.7,150 240.6,148.2 273.1,143.7 276.2,145.4 			"/>
		</g>
		<g>
			<polygon class="st3" points="242.3,215.3 239.1,213.6 239.3,150 242.4,151.7 			"/>
		</g>
		<g>
			<path class="st4" d="M276.2,145.4c1.1-0.2,1.4,0.4,1.4,1.3l0,9.5c0,1-0.4,1.7-1.4,1.8l-21.8,3.1l0,14.7l16.6-2.3
				c0.9-0.1,1.4,0.4,1.4,1.4l0,9.4c0,1-0.5,1.7-1.4,1.8l-16.6,2.3l0,14.1l21.8-3.1c1.1-0.2,1.4,0.3,1.4,1.3l0,9.5
				c0,1-0.4,1.6-1.4,1.7l-32.5,4.6c-0.8,0.1-1.3-0.4-1.3-1.3l0.1-63.6c0-1,0.5-1.6,1.3-1.7L276.2,145.4z"/>
		</g>
		<g>
			<path class="st3" d="M242.4,151.7l-3.1-1.7c0-1,0.5-1.6,1.3-1.7l3.1,1.7C242.9,150.1,242.4,150.7,242.4,151.7z"/>
		</g>
	</g>
</g>
<g>
	<g class="st2">
		<g>
			<polygon class="st4" points="103.9,143.5 101.7,142.3 100.4,135.6 102.7,136.9 			"/>
		</g>
		<g>
			<polygon class="st4" points="95.1,124.3 92.9,123.1 98,122.4 100.2,123.6 			"/>
		</g>
		<g>
			<polygon class="st4" points="100.2,123.6 98,122.4 95.6,109.5 97.9,110.7 			"/>
		</g>
		<g>
			<polygon class="st4" points="97.9,110.7 95.6,109.5 95.4,107.9 97.7,109.1 			"/>
		</g>
		<g>
			<polygon class="st4" points="97.7,89.9 95.5,88.7 105,87.3 107.2,88.6 			"/>
		</g>
		<g>
			<polygon class="st4" points="88.3,91.2 86,90 95.5,88.7 97.7,89.9 			"/>
		</g>
		<g>
			<polygon class="st4" points="75.5,147.5 73.3,146.3 86,90 88.3,91.2 			"/>
		</g>
		<g>
			<path class="st3" d="M107.2,88.6l12.5,52.8l-15.8,2.2l-1.3-6.7l-10.1,1.4l-1.2,7l-15.8,2.2l12.8-56.3l9.4-1.3L107.2,88.6z
				 M95.1,124.3l5.1-0.7l-2.4-12.9l-0.2-1.6l-0.1,1.7L95.1,124.3"/>
		</g>
	</g>
	<g class="st2">
		<g>
			<polygon class="st4" points="143.3,124.3 141.1,123.1 153.7,121.3 156,122.5 			"/>
		</g>
		<g>
			<polygon class="st4" points="137.1,84.2 134.8,83 141.2,82.1 143.4,83.3 			"/>
		</g>
		<g>
			<polygon class="st4" points="124.4,140.6 122.1,139.4 122.2,98.4 124.5,99.7 			"/>
		</g>
		<g>
			<polygon class="st4" points="124.5,86 122.2,84.8 134.8,83 137.1,84.2 			"/>
		</g>
		<g>
			<polygon class="st4" points="124.5,99.7 122.2,98.4 122.2,84.8 124.5,86 			"/>
		</g>
		<g>
			<polygon class="st3" points="143.4,83.3 143.4,97 143.4,103.8 143.3,117.5 143.3,124.3 156,122.5 156,136.2 124.4,140.6 
				124.5,99.7 124.5,86 137.1,84.2 			"/>
		</g>
	</g>
	<g class="st2">
		<g>
			<polygon class="st4" points="180.9,119 178.7,117.8 191.3,116 193.6,117.3 			"/>
		</g>
		<g>
			<polygon class="st4" points="181,98.5 178.7,97.3 191.4,95.5 193.6,96.8 			"/>
		</g>
		<g>
			<polygon class="st4" points="161.9,135.4 159.7,134.1 159.7,120.5 161.9,121.7 			"/>
		</g>
		<g>
			<polygon class="st4" points="161.9,121.7 159.7,120.5 159.8,79.5 162,80.7 			"/>
		</g>
		<g>
			<polygon class="st4" points="162,80.7 159.8,79.5 191.4,75 193.7,76.3 			"/>
		</g>
		<g>
			<polygon class="st3" points="193.7,76.3 193.6,89.9 181,91.7 181,98.5 193.6,96.8 193.6,110.4 180.9,112.2 180.9,119 
				193.6,117.3 193.6,130.9 180.9,132.7 174.6,133.6 161.9,135.4 161.9,121.7 162,80.7 			"/>
		</g>
	</g>
	<g class="st2">
		<g>
			<path class="st4" d="M241.9,95.4l2.3,1.2c-0.1,0-0.2-0.1-0.3-0.1l-2.3-1.2C241.7,95.4,241.8,95.4,241.9,95.4z"/>
		</g>
		<g>
			<polygon class="st4" points="229.1,125.9 226.8,124.6 226.9,111 229.1,112.2 			"/>
		</g>
		<g>
			<polygon class="st4" points="229.1,112.2 226.9,111 226.9,109.9 229.1,111.1 			"/>
		</g>
		<g>
			<path class="st4" d="M225.1,105.3l2.3,1.2c0.2,0.1,0.4,0.2,0.5,0.4c0.8,0.8,1.3,2.1,1.3,4.2l-2.3-1.2c0-2.1-0.4-3.4-1.3-4.2
				C225.5,105.5,225.3,105.4,225.1,105.3z"/>
		</g>
		<g>
			<path class="st4" d="M225.8,85.8l2.3,1.2c0.7,0.4,1.1,1.2,1.1,2.4c0,1.3-0.4,2.3-1.3,2.9l-2.3-1.2c0.8-0.6,1.3-1.6,1.3-2.9
				C226.9,87,226.5,86.2,225.8,85.8z"/>
		</g>
		<g>
			<path class="st4" d="M223.8,93.6l-2.3-1.2c1.8-0.3,3.2-0.7,4.1-1.3l2.3,1.2C227,92.9,225.7,93.3,223.8,93.6z"/>
		</g>
		<g>
			<polygon class="st4" points="222.8,93.8 220.6,92.5 221.6,92.4 223.8,93.6 			"/>
		</g>
		<g>
			<path class="st4" d="M240.5,70.7l2.3,1.2c-2.5-1.3-5.9-1.7-10.4-1.1l-2.3-1.2C234.6,69,238.1,69.3,240.5,70.7z"/>
		</g>
		<g>
			<polygon class="st4" points="203.8,129.4 201.6,128.2 201.6,114.5 203.9,115.8 			"/>
		</g>
		<g>
			<polygon class="st4" points="203.9,115.8 201.6,114.5 201.6,107.8 203.9,109 			"/>
		</g>
		<g>
			<polygon class="st4" points="203.9,109 201.6,107.8 201.6,100.9 203.9,102.2 			"/>
		</g>
		<g>
			<polygon class="st4" points="216.5,73 214.3,71.8 230.1,69.6 232.4,70.8 			"/>
		</g>
		<g>
			<polygon class="st4" points="203.9,102.2 201.6,100.9 201.7,94.1 203.9,95.3 			"/>
		</g>
		<g>
			<polygon class="st4" points="203.9,95.3 201.7,94.1 201.7,87.3 203.9,88.5 			"/>
		</g>
		<g>
			<polygon class="st4" points="203.9,88.5 201.7,87.3 201.7,73.6 203.9,74.8 			"/>
		</g>
		<g>
			<path class="st3" d="M247.9,102.7c0.1,0.5,0.1,1.1,0.2,1.6c0,0.5,0,1.1,0.1,1.8c0,1.2,0,2.4,0,3.6c0,3.5,0,6.5,0,9.2
				c0,2.7,0,4.2,0,4.4c-1.9,0.3-3.7,0.5-5.2,0.7c-1.7,0.2-3.5,0.5-5.4,0.8c-2.1,0.3-3.9,0.5-5.3,0.7l-3.2,0.4l0-13.7v-1.1
				c0-2.1-0.4-3.4-1.3-4.2c-0.8-0.7-2.2-1-4.1-0.7l-1,0.1l0,6.8l0,13.7l-6.3,0.9l-12.6,1.8l0-13.7l0-6.8l0-6.8l0-6.8l0-6.8l0-13.7
				l12.6-1.8l15.8-2.2c5.7-0.8,9.8,0,12.2,2.4c2.4,2.4,3.6,6.6,3.6,12.7c0,0.7-0.1,1.2-0.1,1.8c0,0.5-0.1,1.1-0.2,1.6
				c-0.1,1.2-0.4,2.3-0.8,3.3c-0.4,0.9-0.9,1.7-1.4,2.3c-0.5,0.6-1.1,1.2-1.8,1.7c0.7,0.4,1.3,0.8,1.8,1.2c0.5,0.5,0.9,1.1,1.4,1.9
				C247.5,100.4,247.7,101.4,247.9,102.7z M227.9,92.3c0.8-0.6,1.3-1.6,1.3-2.9c0-1.3-0.4-2.2-1.3-2.5c-0.8-0.4-2.2-0.4-4.1-0.1
				l-1,0.1l0,3.4l0,3.4l1-0.1C225.7,93.3,227,92.9,227.9,92.3"/>
		</g>
		<g>
			<polygon class="st4" points="203.9,74.8 201.7,73.6 214.3,71.8 216.5,73 			"/>
		</g>
	</g>
	<g class="st2">
		<g>
			<polygon class="st4" points="263.8,121 261.5,119.8 261.6,106.2 263.8,107.4 			"/>
		</g>
		<g>
			<polygon class="st4" points="263.8,107.4 261.6,106.2 261.6,99.3 263.8,100.6 			"/>
		</g>
		<g>
			<polygon class="st4" points="282.9,63.7 280.6,62.5 293.3,60.7 295.5,61.9 			"/>
		</g>
		<g>
			<polygon class="st4" points="263.8,100.6 261.6,99.3 261.6,85.7 263.8,86.9 			"/>
		</g>
		<g>
			<polygon class="st4" points="263.8,86.9 261.6,85.7 261.6,78.8 263.9,80.1 			"/>
		</g>
		<g>
			<polygon class="st4" points="251.2,68.2 249,67 280.6,62.5 282.9,63.7 			"/>
		</g>
		<g>
			<polygon class="st4" points="251.2,81.8 248.9,80.6 249,67 251.2,68.2 			"/>
		</g>
		<g>
			<polygon class="st3" points="295.5,61.9 295.5,75.6 282.8,77.4 282.8,104.7 282.8,118.3 270.1,120.1 263.8,121 263.8,107.4 
				263.8,100.6 263.8,86.9 263.9,80.1 251.2,81.8 251.2,68.2 282.9,63.7 			"/>
		</g>
	</g>
</g>
<g>
	<g class="st2">
		<g>
			<polygon class="st5" points="155.2,272.6 153.2,271.5 153.2,270.6 155.3,271.6 			"/>
		</g>
		<g>
			<polygon class="st5" points="149.8,287 147.7,285.9 146.4,277 148.5,278 			"/>
		</g>
		<g>
			<polygon class="st5" points="148.5,278 146.4,277 146.3,276.1 148.4,277.1 			"/>
		</g>
		<g>
			<polygon class="st5" points="155.3,271.6 153.2,270.6 155.1,253.7 157.2,254.7 			"/>
		</g>
		<g>
			<polygon class="st5" points="157.2,254.7 155.1,253.7 164.8,252.4 166.9,253.5 			"/>
		</g>
		<g>
			<polygon class="st5" points="141.6,274.4 139.5,273.3 139.6,272.4 141.7,273.4 			"/>
		</g>
		<g>
			<polygon class="st5" points="143.6,256.5 141.5,255.5 151.3,254.2 153.3,255.2 			"/>
		</g>
		<g>
			<polygon class="st5" points="141.7,273.4 139.6,272.4 141.5,255.5 143.6,256.5 			"/>
		</g>
		<g>
			<polygon class="st5" points="135.8,288.8 133.7,287.7 127.9,257.2 130,258.3 			"/>
		</g>
		<g>
			<polygon class="st3" points="166.9,253.5 161,285.5 155.2,286.2 149.8,287 148.5,278 148.4,277.1 148.3,278 147,287.3 141.6,288 
				135.8,288.8 130,258.3 139.7,257 141.5,273.4 141.6,274.4 141.7,273.4 143.6,256.5 153.3,255.2 155.1,271.6 155.2,272.6 
				155.3,271.6 157.2,254.7 			"/>
		</g>
		<g>
			<polygon class="st5" points="130,258.3 127.9,257.2 137.6,256 139.7,257 			"/>
		</g>
	</g>
	<g class="st2">
		<g>
			<polygon class="st5" points="108.4,292.3 106.3,291.3 106.3,283.5 108.4,284.6 			"/>
		</g>
		<g>
			<polygon class="st5" points="108.4,284.6 106.3,283.5 106.3,279.6 108.4,280.7 			"/>
		</g>
		<g>
			<polygon class="st5" points="120.1,259.6 118,258.5 125.8,257.5 127.9,258.6 			"/>
		</g>
		<g>
			<polygon class="st5" points="108.4,280.7 106.3,279.6 106.3,271.8 108.4,272.8 			"/>
		</g>
		<g>
			<polygon class="st5" points="108.4,272.8 106.3,271.8 106.3,267.9 108.4,268.9 			"/>
		</g>
		<g>
			<polygon class="st5" points="100.6,262.1 98.6,261.1 118,258.5 120.1,259.6 			"/>
		</g>
		<g>
			<polygon class="st5" points="100.6,269.9 98.6,268.9 98.6,261.1 100.6,262.1 			"/>
		</g>
		<g>
			<polygon class="st3" points="127.9,258.6 127.9,266.4 120.1,267.4 120,283 120,290.8 112.3,291.8 108.4,292.3 108.4,284.6 
				108.4,280.7 108.4,272.8 108.4,268.9 100.6,269.9 100.6,262.1 120.1,259.6 			"/>
		</g>
	</g>
	<g class="st2">
		<g>
			<polygon class="st5" points="169.3,284.4 167.2,283.4 167.2,275.6 169.3,276.6 			"/>
		</g>
		<g>
			<polygon class="st5" points="169.3,276.6 167.2,275.6 167.2,252.2 169.3,253.2 			"/>
		</g>
		<g>
			<polygon class="st5" points="169.3,253.2 167.2,252.2 178.9,250.7 181,251.7 			"/>
		</g>
		<g>
			<polygon class="st3" points="181,251.7 180.9,259.5 180.9,263.4 180.9,271.2 180.9,275.1 180.9,282.9 177,283.4 169.3,284.4 
				169.3,276.6 169.3,253.2 			"/>
		</g>
	</g>
	<g class="st2">
		<g>
			<polygon class="st5" points="229.2,265.5 227.1,264.4 227.1,263.8 229.2,264.9 			"/>
		</g>
		<g>
			<polygon class="st5" points="229.2,264.9 227.1,263.8 238.8,262.3 240.9,263.3 			"/>
		</g>
		<g>
			<path class="st5" d="M226.2,268.9l-2.1-1.1c0.3,0.1,0.6,0.2,1.1,0.1c0.8-0.1,1.3-0.4,1.5-1c0.3-0.5,0.4-1.4,0.4-2.6l2.1,1.1
				c0,1.2-0.1,2-0.4,2.6c-0.3,0.5-0.8,0.9-1.5,1C226.8,269.1,226.4,269,226.2,268.9z"/>
		</g>
		<g>
			<polygon class="st5" points="229.2,257 227.1,256 227.1,255.4 229.2,256.4 			"/>
		</g>
		<g>
			<path class="st5" d="M226.3,252.5l2.1,1.1c0.2,0.1,0.4,0.3,0.5,0.5c0.3,0.5,0.4,1.3,0.4,2.4l-2.1-1.1c0-1.1-0.1-2-0.4-2.4
				C226.6,252.7,226.5,252.6,226.3,252.5z"/>
		</g>
		<g>
			<path class="st5" d="M235.5,244.6l2.1,1.1c-1.5-0.8-3.6-1-6.4-0.6l-2.1-1.1C231.9,243.7,234,243.9,235.5,244.6z"/>
		</g>
		<g>
			<polygon class="st5" points="227.3,245.6 225.2,244.5 229.1,244 231.2,245.1 			"/>
		</g>
		<g>
			<path class="st5" d="M217,276.7l-2.1-1.1c-0.4-0.2-0.8-0.5-1.1-0.7c-1.5-1.4-2.2-3.8-2.2-7.3l2.1,1.1c0,3.5,0.7,5.9,2.2,7.3
				C216.2,276.3,216.6,276.5,217,276.7z"/>
		</g>
		<g>
			<polygon class="st5" points="213.7,268.7 211.6,267.7 211.6,261.9 213.7,263 			"/>
		</g>
		<g>
			<polygon class="st5" points="223.4,246.1 221.3,245 225.2,244.5 227.3,245.6 			"/>
		</g>
		<g>
			<polygon class="st5" points="213.7,263 211.6,261.9 211.6,256.2 213.7,257.2 			"/>
		</g>
		<g>
			<path class="st3" d="M231.2,245.1c3.5-0.5,6,0,7.5,1.3c1.5,1.4,2.2,3.8,2.2,7.3l0,1.8l-11.7,1.5l0-0.6c0-1.1-0.1-2-0.4-2.4
				c-0.3-0.5-0.8-0.7-1.5-0.6c-0.8,0.1-1.3,0.4-1.5,1c-0.3,0.6-0.4,1.4-0.4,2.6l0,0.6l0,7.8l0,0.6c0,1.2,0.1,2,0.4,2.5
				c0.3,0.5,0.8,0.7,1.5,0.6c0.8-0.1,1.3-0.4,1.5-1c0.3-0.5,0.4-1.4,0.4-2.6l0-0.6l11.7-1.5l0,1.8c0,3.5-0.8,6.1-2.2,7.9
				c-1.5,1.7-4,2.8-7.5,3.3l-3.9,0.5l-3.9,0.5c-3.5,0.5-6,0-7.5-1.3c-1.5-1.4-2.2-3.8-2.2-7.3l0-5.7l0-5.7c0-3.5,0.8-6.1,2.2-7.8
				c1.5-1.7,4-2.8,7.5-3.3l3.9-0.5L231.2,245.1z"/>
		</g>
		<g>
			<path class="st5" d="M213.7,257.2l-2.1-1.1c0-3.5,0.8-6.1,2.2-7.8c1.5-1.7,4-2.8,7.5-3.3l2.1,1.1c-3.5,0.5-6,1.6-7.5,3.3
				C214.5,251.1,213.7,253.7,213.7,257.2z"/>
		</g>
	</g>
	<g class="st2">
		<g>
			<polygon class="st5" points="192.1,281.4 190.1,280.3 190.1,272.6 192.2,273.6 			"/>
		</g>
		<g>
			<polygon class="st5" points="192.2,273.6 190.1,272.6 190.1,268.6 192.2,269.7 			"/>
		</g>
		<g>
			<polygon class="st5" points="203.9,248.6 201.8,247.6 209.6,246.6 211.7,247.6 			"/>
		</g>
		<g>
			<polygon class="st5" points="192.2,269.7 190.1,268.6 190.1,260.8 192.2,261.9 			"/>
		</g>
		<g>
			<polygon class="st5" points="192.2,261.9 190.1,260.8 190.1,256.9 192.2,258 			"/>
		</g>
		<g>
			<polygon class="st5" points="184.4,251.2 182.3,250.1 201.8,247.6 203.9,248.6 			"/>
		</g>
		<g>
			<polygon class="st5" points="184.4,259 182.3,257.9 182.3,250.1 184.4,251.2 			"/>
		</g>
		<g>
			<polygon class="st3" points="211.7,247.6 211.6,255.4 203.9,256.5 203.8,272.1 203.8,279.9 196,280.9 192.1,281.4 192.2,273.6 
				192.2,269.7 192.2,261.9 192.2,258 184.4,259 184.4,251.2 203.9,248.6 			"/>
		</g>
	</g>
	<g class="st2">
		<g>
			<polygon class="st5" points="260.6,272.5 258.6,271.4 258.6,263.6 260.6,264.7 			"/>
		</g>
		<g>
			<polygon class="st5" points="260.6,264.7 258.6,263.6 258.6,259.7 260.7,260.7 			"/>
		</g>
		<g>
			<polygon class="st5" points="256.8,253.4 254.7,252.4 258.6,251.9 260.7,252.9 			"/>
		</g>
		<g>
			<polygon class="st5" points="260.7,252.9 258.6,251.9 258.6,240.2 260.7,241.2 			"/>
		</g>
		<g>
			<polygon class="st5" points="260.7,241.2 258.6,240.2 270.3,238.6 272.4,239.7 			"/>
		</g>
		<g>
			<polygon class="st5" points="245.1,274.5 243,273.5 243,265.6 245.1,266.7 			"/>
		</g>
		<g>
			<polygon class="st5" points="245.1,243.2 243,242.2 254.7,240.7 256.8,241.7 			"/>
		</g>
		<g>
			<polygon class="st5" points="245.1,266.7 243,265.6 243,242.2 245.1,243.2 			"/>
		</g>
		<g>
			<polygon class="st3" points="272.4,239.7 272.3,247.5 272.3,251.4 272.3,259.2 272.3,263.1 272.3,270.9 268.4,271.4 260.6,272.5 
				260.6,264.7 260.7,260.7 256.8,261.3 256.7,265.2 256.7,273 252.8,273.5 245.1,274.5 245.1,266.7 245.1,243.2 256.8,241.7 
				256.8,249.5 256.8,253.4 260.7,252.9 260.7,241.2 			"/>
		</g>
	</g>
</g>
</svg>
