<?xml version="1.0" encoding="utf-8"?>
<!-- Generator: Adobe Illustrator 25.4.1, SVG Export Plug-In . SVG Version: 6.00 Build 0)  -->
<svg version="1.1" id="Capa_1" xmlns="http://www.w3.org/2000/svg" xmlns:xlink="http://www.w3.org/1999/xlink" x="0px" y="0px"
	 viewBox="0 0 722.3 105.7" style="enable-background:new 0 0 722.3 105.7;" xml:space="preserve">
<style type="text/css">
	.st0{enable-background:new    ;}
	.st1{fill:#EEEB88;}
	.st2{fill:#C58ABC;}
</style>
<g>
	<g class="st0">
		<g>
			<polygon class="st1" points="252.8,40.6 252.9,48.8 228.9,48.8 228.8,40.7 			"/>
		</g>
		<g>
			<polygon class="st1" points="313.1,26.7 313.2,34.8 312.9,48.7 312.8,40.6 			"/>
		</g>
		<g>
			<polygon class="st1" points="312.8,40.6 312.9,48.7 288.9,48.7 288.8,40.6 			"/>
		</g>
		<g>
			<polygon class="st1" points="359.7,26.7 359.8,34.9 359.4,48.7 359.3,40.6 			"/>
		</g>
		<g>
			<path d="M222.8,43.4l0.1,8.2c0,0.3,0,0.7,0,1l-0.1-8.2C222.8,44,222.8,43.7,222.8,43.4z"/>
		</g>
		<g>
			<polygon class="st1" points="508.6,26.6 508.7,34.7 508.3,48.5 508.2,40.4 			"/>
		</g>
		<g>
			<path class="st1" d="M186.9,46l0.1,8.2c0-1.7-0.4-3-1.1-3.9c-0.2-0.2-0.5-0.5-0.8-0.6c-0.9-0.5-2.2-0.7-3.9-0.7
				c-2.4,0-4,0.5-4.8,1.4c-0.8,0.9-1.3,2.4-1.3,4.5l-0.1-8.2c0.1-2,0.5-3.5,1.3-4.5c0.8-0.9,2.4-1.4,4.8-1.4c1.7,0,3,0.2,3.9,0.7
				c0.3,0.2,0.6,0.4,0.8,0.6C186.5,42.9,186.9,44.2,186.9,46z"/>
		</g>
		<g>
			<polygon class="st1" points="174.9,46.6 175,54.7 175,55.8 174.9,47.7 			"/>
		</g>
		<g>
			<path d="M459.3,43.1l0.1,8.2c0,0.3,0,0.6,0,1l-0.1-8.2C459.3,43.7,459.3,43.4,459.3,43.1z"/>
		</g>
		<g>
			<path class="st1" d="M423.2,45.7l0.1,8.2c0-1.8-0.4-3-1.2-3.9c-0.2-0.2-0.5-0.5-0.8-0.6c-0.9-0.5-2.2-0.7-3.9-0.7
				c-2.3,0-3.9,0.5-4.8,1.4c-0.9,0.9-1.3,2.4-1.4,4.5l-0.1-8.2c0-2,0.5-3.5,1.4-4.5c0.9-0.9,2.5-1.4,4.8-1.4c1.7,0,3,0.2,3.9,0.7
				c0.3,0.2,0.6,0.4,0.8,0.6C422.8,42.7,423.2,44,423.2,45.7z"/>
		</g>
		<g>
			<polygon class="st1" points="359.3,40.6 359.4,48.7 359.2,55.7 359.1,47.5 			"/>
		</g>
		<g>
			<polygon points="411.2,46.3 411.4,54.4 411.3,55.5 411.2,47.4 			"/>
		</g>
		<g>
			<path d="M687.2,42.8l0.1,8.2c0,0.3,0,0.6,0,1l-0.1-8.2C687.2,43.5,687.2,43.1,687.2,42.8z"/>
		</g>
		<g>
			<polygon class="st1" points="459.3,44.1 459.4,52.2 459.3,55.5 459.2,47.3 			"/>
		</g>
		<g>
			<polygon class="st1" points="459.2,47.3 459.3,55.5 423.3,55.5 423.2,47.4 			"/>
		</g>
		<g>
			<polygon class="st1" points="508.2,40.4 508.3,48.5 508.1,55.5 508,47.4 			"/>
		</g>
		<g>
			<path class="st1" d="M651.1,45.5l0.1,8.2c0-1.8-0.4-3.1-1.1-3.9c-0.2-0.3-0.5-0.5-0.8-0.7c-0.9-0.5-2.1-0.7-3.8-0.7
				c-2.3,0-3.8,0.5-4.6,1.6c-0.5,0.6-0.7,1.3-0.7,1.9l-0.1-8.2c0-0.7,0.2-1.3,0.7-1.9c0.8-1.1,2.3-1.6,4.6-1.6
				c1.7,0,2.9,0.2,3.8,0.7c0.3,0.2,0.6,0.4,0.8,0.7C650.7,42.4,651,43.7,651.1,45.5z"/>
		</g>
		<g>
			<polygon class="st1" points="556.4,46 556.5,54.2 556.2,55.9 556.1,47.7 			"/>
		</g>
		<g>
			<polygon class="st1" points="556.7,47.7 556.8,55.9 556.5,54.2 556.4,46 			"/>
		</g>
		<g>
			<polygon class="st1" points="687.2,47.1 687.3,55.2 651.2,55.3 651,47.1 			"/>
		</g>
		<g>
			<polygon class="st1" points="687.2,43.8 687.4,52 687.3,55.2 687.2,47.1 			"/>
		</g>
		<g>
			<polygon class="st1" points="222.8,44.4 222.9,52.5 222.7,62.7 222.5,54.6 			"/>
		</g>
		<g>
			<path class="st1" d="M603.5,49.3l-0.1-8.2c0,2.6,0.5,5,1.4,7c1,2.2,2.8,4.1,5.6,5.6c0.1,0.1,0.3,0.2,0.4,0.2l0.1,8.2
				c-0.2-0.1-0.3-0.2-0.4-0.2c-2.8-1.5-4.6-3.4-5.6-5.6C604,54.3,603.5,52,603.5,49.3z"/>
		</g>
		<g>
			<polygon class="st1" points="174.9,47.7 175,55.8 174.6,69.7 174.5,61.6 			"/>
		</g>
		<g>
			<polygon class="st1" points="174.5,61.6 174.6,69.7 174.6,70.8 174.5,62.7 			"/>
		</g>
		<g>
			<path d="M174.6,71.5l-0.1-8.2c0-0.2,0-0.4,0-0.6l0.1,8.2C174.6,71.1,174.6,71.3,174.6,71.5z"/>
		</g>
		<g>
			<polygon class="st1" points="74.9,65.1 75.1,73.3 74.5,72.1 74.4,64 			"/>
		</g>
		<g>
			<path class="st1" d="M620.5,57.2l0.1,8.2c-4.1-0.7-7.4-1.8-9.8-3.1l-0.1-8.2C613.2,55.4,616.4,56.4,620.5,57.2z"/>
		</g>
		<g>
			<polygon class="st1" points="359.1,47.5 359.2,55.7 358.9,69.6 358.8,61.4 			"/>
		</g>
		<g>
			<polygon class="st1" points="411.2,47.4 411.3,55.5 411,69.5 410.9,61.3 			"/>
		</g>
		<g>
			<polygon class="st1" points="222.5,54.6 222.7,62.7 222.4,73 222.3,64.9 			"/>
		</g>
		<g>
			<polygon points="410.9,61.3 411,69.5 410.9,70.6 410.8,62.4 			"/>
		</g>
		<g>
			<polygon class="st1" points="508,47.4 508.1,55.5 507.8,69.4 507.7,61.3 			"/>
		</g>
		<g>
			<path d="M410.9,71.1l-0.1-8.2c0-0.2,0-0.4,0-0.6l0.1,8.2C410.9,70.8,410.9,71,410.9,71.1z"/>
		</g>
		<g>
			<polygon class="st1" points="556.1,47.7 556.2,55.9 551.3,69.4 551.2,61.2 			"/>
		</g>
		<g>
			<polygon class="st1" points="560.9,61.2 561.1,69.3 556.8,55.9 556.7,47.7 			"/>
		</g>
		<g>
			<path class="st1" d="M644.8,60l0.1,8.2c-2.6-0.6-5.6-1-9-1.1c-3.7-0.1-8.8-0.7-15.3-1.8l-0.1-8.2c6.5,1.1,11.6,1.7,15.3,1.8
				C639.2,59.1,642.2,59.4,644.8,60z"/>
		</g>
		<g>
			<polygon class="st1" points="458.8,61.2 459,69.4 458.9,72.7 458.8,64.5 			"/>
		</g>
		<g>
			<polygon points="638.9,61 639,69.2 639,70.3 638.9,62.1 			"/>
		</g>
		<g>
			<path d="M639,70.9l-0.1-8.2c0-0.2,0-0.4,0-0.6l0.1,8.2C639,70.5,639,70.7,639,70.9z"/>
		</g>
		<g>
			<polygon class="st1" points="288.8,40.6 288.9,48.7 288.2,76.5 288.1,68.4 			"/>
		</g>
		<g>
			<polygon class="st1" points="358.8,61.4 358.9,69.6 358.7,76.5 358.6,68.4 			"/>
		</g>
		<g>
			<path class="st1" d="M649.9,64.5l0.1,8.2c0-0.5-0.2-1-0.5-1.5c-0.4-0.7-1.1-1.3-2-1.8c-0.7-0.4-1.6-0.7-2.6-1l-0.1-8.2
				c1,0.3,1.9,0.6,2.6,1c1,0.5,1.6,1.1,2,1.8C649.7,63.5,649.9,64,649.9,64.5z"/>
		</g>
		<g>
			<polygon class="st1" points="507.7,61.3 507.8,69.4 507.6,76.4 507.5,68.2 			"/>
		</g>
		<g>
			<polygon class="st1" points="565.5,75 565.6,83.2 546.3,83.2 546.2,75 			"/>
		</g>
		<g>
			<polygon class="st1" points="74.4,64 74.5,72.1 74,90.7 73.9,82.6 			"/>
		</g>
		<g>
			<polygon class="st1" points="73.9,82.6 74,90.7 38,90.7 37.9,82.6 			"/>
		</g>
		<g>
			<polygon class="st1" points="85.8,82.5 85.9,90.7 75.1,73.3 74.9,65.1 			"/>
		</g>
		<g>
			<polygon class="st1" points="123.2,26.9 123.3,35 121.9,90.7 121.8,82.5 			"/>
		</g>
		<g>
			<polygon class="st2" points="123.2,26.9 121.8,82.5 85.8,82.5 74.9,65.1 74.4,64 73.9,82.6 37.9,82.6 39.3,27 75.3,26.9 
				86.2,44.4 86.7,45.5 87.2,26.9 			"/>
		</g>
		<g>
			<polygon class="st1" points="121.8,82.5 121.9,90.7 85.9,90.7 85.8,82.5 			"/>
		</g>
		<g>
			<path class="st1" d="M138.5,74.1l-0.1-8.2c0.1,5.7,2.3,9.9,6.6,12.5c0.2,0.1,0.4,0.2,0.6,0.3c4.6,2.5,12.1,3.8,22.4,3.8l0.1,8.2
				c-10.4,0-17.8-1.2-22.4-3.8c-0.2-0.1-0.4-0.2-0.6-0.3C140.8,84,138.6,79.8,138.5,74.1z"/>
		</g>
		<g>
			<polygon class="st1" points="180,82.5 180.1,90.6 168.1,90.7 168,82.5 			"/>
		</g>
		<g>
			<polygon class="st1" points="191.8,82.5 192,90.6 180.1,90.6 180,82.5 			"/>
		</g>
		<g>
			<path class="st2" d="M222.3,64.9c-0.2,6.2-2.6,10.7-7.2,13.5c-4.6,2.8-12.4,4.2-23.3,4.2l-11.9,0l-12,0
				c-10.4,0-17.8-1.2-22.4-3.8c-0.2-0.1-0.4-0.2-0.6-0.3c-4.5-2.8-6.7-7.2-6.6-13.4l0.3-10.3l0.3-10.2c0.2-6.2,2.6-10.7,7.2-13.5
				c4.7-2.8,12.4-4.1,23.2-4.2l12,0l11.9,0c10.4,0,17.9,1.2,22.5,3.8c0.2,0.1,0.4,0.2,0.6,0.3c4.5,2.7,6.7,7.2,6.5,13.4l-0.3,10.2
				L222.3,64.9z M180.3,68.5c2.3,0,3.9-0.5,4.8-1.4s1.3-2.4,1.4-4.5l0-1.1l0.4-13.9l0-1.1c0.1-2-0.3-3.5-1.1-4.4
				c-0.2-0.2-0.5-0.5-0.8-0.6c-0.9-0.5-2.2-0.7-3.9-0.7c-2.4,0-4,0.5-4.8,1.4c-0.8,0.9-1.3,2.4-1.3,4.5l0,1.1l-0.4,13.9l0,1.1
				c-0.1,2.1,0.3,3.6,1.1,4.5c0.2,0.2,0.5,0.4,0.8,0.6C177.2,68.3,178.5,68.5,180.3,68.5"/>
		</g>
		<g>
			<path class="st1" d="M222.3,64.9l0.1,8.2c-0.2,6.2-2.6,10.7-7.2,13.5c-4.6,2.8-12.4,4.2-23.3,4.2l-0.1-8.2
				c10.9,0,18.6-1.4,23.3-4.2C219.7,75.6,222.1,71.1,222.3,64.9z"/>
		</g>
		<g>
			<polygon class="st1" points="263.7,82.3 263.8,90.4 251.8,90.4 251.7,82.3 			"/>
		</g>
		<g>
			<polygon class="st1" points="287.7,82.2 287.8,90.4 263.8,90.4 263.7,82.3 			"/>
		</g>
		<g>
			<polygon class="st1" points="288.1,68.4 288.2,76.5 287.8,90.4 287.7,82.2 			"/>
		</g>
		<g>
			<polygon class="st2" points="313.1,26.7 312.8,40.6 288.8,40.6 288.1,68.4 287.7,82.2 263.7,82.3 251.7,82.3 252.1,68.4 
				252.2,61.5 252.6,47.6 252.8,40.6 228.8,40.7 229.1,26.8 289.1,26.7 			"/>
		</g>
		<g>
			<polygon class="st1" points="346.2,82.2 346.4,90.4 322.5,90.4 322.4,82.3 			"/>
		</g>
		<g>
			<polygon class="st1" points="358.6,68.4 358.7,76.5 358.4,90.4 358.2,82.2 			"/>
		</g>
		<g>
			<polygon class="st2" points="359.7,26.7 359.3,40.6 359.1,47.5 358.8,61.4 358.6,68.4 358.2,82.2 346.2,82.2 322.4,82.3 
				322.7,68.4 323.8,26.8 			"/>
		</g>
		<g>
			<polygon class="st1" points="358.2,82.2 358.4,90.4 346.4,90.4 346.2,82.2 			"/>
		</g>
		<g>
			<path class="st1" d="M375,73.7l-0.1-8.2c0.1,5.7,2.2,9.9,6.5,12.5c0.2,0.1,0.4,0.2,0.6,0.3c4.6,2.5,12,3.8,22.3,3.8l0.1,8.2
				c-10.3,0-17.8-1.2-22.3-3.8c-0.2-0.1-0.4-0.2-0.6-0.3C377.3,83.6,375.1,79.4,375,73.7z"/>
		</g>
		<g>
			<polygon class="st1" points="416.3,82.2 416.4,90.3 404.4,90.3 404.3,82.2 			"/>
		</g>
		<g>
			<polygon class="st1" points="428.3,82.1 428.4,90.3 416.4,90.3 416.3,82.2 			"/>
		</g>
		<g>
			<path class="st1" d="M458.8,64.5l0.1,8.2c-0.2,6.2-2.6,10.7-7.2,13.5c-4.7,2.8-12.4,4.2-23.2,4.2l-0.1-8.2
				c10.8,0,18.5-1.4,23.2-4.2C456.2,75.2,458.6,70.7,458.8,64.5z"/>
		</g>
		<g>
			<path class="st2" d="M452.2,30.3c0.2,0.1,0.4,0.2,0.5,0.3c4.5,2.8,6.7,7.2,6.6,13.4l-0.1,3.3l-36,0l0-1.1c0.1-2-0.3-3.5-1.1-4.4
				c-0.2-0.2-0.5-0.5-0.8-0.6c-0.9-0.5-2.2-0.7-3.9-0.7c-2.3,0-3.9,0.5-4.8,1.4c-0.9,0.9-1.3,2.4-1.4,4.5l0,1.1l-0.4,13.9l0,1.1
				c-0.1,2.1,0.3,3.6,1.1,4.5c0.2,0.2,0.5,0.4,0.8,0.6c0.9,0.5,2.2,0.7,3.9,0.7c2.3,0,3.9-0.5,4.8-1.4c0.9-0.9,1.3-2.4,1.4-4.5
				l0-1.1l36,0l-0.1,3.3c-0.2,6.2-2.6,10.7-7.2,13.5c-4.7,2.8-12.4,4.2-23.2,4.2l-12,0l-12,0c-10.3,0-17.8-1.2-22.3-3.8
				c-0.2-0.1-0.4-0.2-0.6-0.3c-4.5-2.8-6.6-7.2-6.5-13.4l0.3-10.2l0.3-10.2c0.2-6.2,2.6-10.7,7.2-13.5c4.6-2.8,12.3-4.2,23.1-4.2
				l12,0l12,0C440.1,26.5,447.6,27.8,452.2,30.3z"/>
		</g>
		<g>
			<polygon class="st1" points="495.1,82.1 495.3,90.2 471.4,90.2 471.3,82.1 			"/>
		</g>
		<g>
			<polygon class="st2" points="508.6,26.6 508.2,40.4 508,47.4 507.7,61.3 507.5,68.2 507.1,82 495.1,82.1 471.3,82.1 471.6,68.3 
				472.7,26.6 			"/>
		</g>
		<g>
			<polygon class="st1" points="507.1,82 507.3,90.2 495.3,90.2 495.1,82.1 			"/>
		</g>
		<g>
			<polygon class="st1" points="507.5,68.2 507.6,76.4 507.3,90.2 507.1,82 			"/>
		</g>
		<g>
			<polygon class="st1" points="543.6,82 543.7,90.2 513.7,90.2 513.6,82 			"/>
		</g>
		<g>
			<polygon class="st1" points="546.2,75 546.3,83.2 543.7,90.2 543.6,82 			"/>
		</g>
		<g>
			<polygon class="st1" points="567.6,82 567.7,90.1 565.6,83.2 565.5,75 			"/>
		</g>
		<g>
			<polygon class="st1" points="597.6,81.9 597.7,90.1 567.7,90.1 567.6,82 			"/>
		</g>
		<g>
			<path class="st2" d="M575,26.3l22.6,55.6l-30,0l-2.1-6.9l-19.3,0l-2.6,7l-30,0L539,26.4l18,0L575,26.3z M551.2,61.2l9.7,0
				l-4.2-13.5l-0.3-1.7l-0.3,1.7L551.2,61.2"/>
		</g>
		<g>
			<path class="st1" d="M602.8,73.5l-0.1-8.2c0.1,5.7,2.3,9.8,6.6,12.4c0.2,0.1,0.4,0.2,0.5,0.3c4.6,2.5,12.1,3.8,22.6,3.8l0.1,8.2
				c-10.5,0-18-1.3-22.6-3.8c-0.2-0.1-0.4-0.2-0.5-0.3C605.1,83.3,602.9,79.2,602.8,73.5z"/>
		</g>
		<g>
			<polygon class="st1" points="644.4,81.9 644.5,90 632.5,90 632.4,81.9 			"/>
		</g>
		<g>
			<polygon class="st1" points="656.4,81.9 656.5,90 644.5,90 644.4,81.9 			"/>
		</g>
		<g>
			<path class="st2" d="M680.2,30c0.2,0.1,0.4,0.2,0.5,0.3c4.5,2.7,6.7,7.2,6.6,13.4l-0.1,3.3l-36.1,0l0-1c0.1-2.1-0.3-3.6-1.1-4.5
				c-0.2-0.3-0.5-0.5-0.8-0.7c-0.9-0.5-2.1-0.7-3.8-0.7c-2.3,0-3.8,0.5-4.6,1.6c-0.8,1.1-0.9,2.2-0.3,3.5c0.4,0.7,1,1.3,2,1.9
				c0.7,0.4,1.6,0.7,2.7,1c2.5,0.6,5.5,1,8.9,1.1c3.7,0.1,8.9,0.7,15.3,1.7c4.1,0.8,7.4,1.8,9.9,3c3.1,1.7,5,3.6,6,5.9
				c1,2.3,1.5,5,1.4,8c-0.1,4.9-2.8,8.5-7.9,10.6c-5.1,2.2-12.6,3.3-22.3,3.3l-12,0l-12,0c-10.5,0-18-1.3-22.6-3.8
				c-0.2-0.1-0.4-0.2-0.5-0.3c-4.5-2.8-6.7-7.2-6.6-13.4l0.1-3.3l36.1,0l0,1.1c-0.1,2.1,0.3,3.6,1.1,4.5c0.2,0.2,0.5,0.5,0.8,0.6
				c0.9,0.5,2.2,0.7,3.9,0.7c2.2,0,3.7-0.5,4.5-1.6c0.9-1.1,1-2.2,0.3-3.4c-0.4-0.7-1.1-1.3-2-1.8c-0.7-0.4-1.6-0.7-2.6-1
				c-2.6-0.6-5.6-1-9-1.1c-3.7-0.1-8.8-0.7-15.3-1.8c-4.1-0.7-7.4-1.8-9.8-3.1c-0.2-0.1-0.3-0.2-0.4-0.2c-2.8-1.5-4.6-3.4-5.6-5.6
				c-1-2.3-1.5-5-1.4-8c0.1-4.9,2.7-8.4,7.9-10.6c5.1-2.2,12.5-3.3,22.2-3.3l12.1,0l12,0C668,26.2,675.6,27.5,680.2,30z"/>
		</g>
		<g>
			<path class="st1" d="M686.6,67l0.1,8.2c0,0.3,0,0.6,0,0.9c-0.1,4.9-2.8,8.5-7.9,10.6c-5.1,2.2-12.6,3.3-22.3,3.3l-0.1-8.2
				c9.8,0,17.2-1.1,22.3-3.3c5.1-2.2,7.8-5.7,7.9-10.6C686.6,67.6,686.6,67.3,686.6,67z"/>
		</g>
	</g>
</g>
</svg>
