<?xml version="1.0" encoding="utf-8"?>
<!-- Generator: Adobe Illustrator 25.4.1, SVG Export Plug-In . SVG Version: 6.00 Build 0)  -->
<svg version="1.1" id="Capa_1" xmlns="http://www.w3.org/2000/svg" xmlns:xlink="http://www.w3.org/1999/xlink" x="0px" y="0px"
	 viewBox="0 0 1488.2 293" style="enable-background:new 0 0 1488.2 293;" xml:space="preserve">
<style type="text/css">
	.st0{enable-background:new    ;}
	.st1{fill:#EC84EF;}
	.st2{fill:#EFEC84;}
</style>
<g>
	<g class="st0">
		<g>
			<polygon class="st1" points="1414.4,13.1 1364.3,6.6 1416.2,5 1466.3,11.5 			"/>
		</g>
		<g>
			<polygon class="st1" points="1334.1,254.5 1284,248 1284.6,188.5 1334.7,195 			"/>
		</g>
		<g>
			<polygon class="st1" points="1334.7,195 1284.6,188.5 1284.9,158.6 1335,165.1 			"/>
		</g>
		<g>
			<polygon class="st1" points="1335,165.1 1284.9,158.6 1285.5,98.7 1335.6,105.2 			"/>
		</g>
		<g>
			<polygon class="st1" points="1335.6,105.2 1285.5,98.7 1285.8,68.8 1335.9,75.3 			"/>
		</g>
		<g>
			<polygon class="st1" points="1284.5,17 1234.5,10.5 1364.3,6.6 1414.4,13.1 			"/>
		</g>
		<g>
			<polygon class="st1" points="1283.9,76.9 1233.9,70.4 1234.5,10.5 1284.5,17 			"/>
		</g>
		<g>
			<polygon class="st2" points="1466.3,11.5 1465.7,71.3 1413.8,72.9 1412.6,192.6 1412,252.2 1360.1,253.8 1334.1,254.5 
				1334.7,195 1335,165.1 1335.6,105.2 1335.9,75.3 1283.9,76.9 1284.5,17 1414.4,13.1 			"/>
		</g>
	</g>
	<g class="st0">
		<g>
			<path class="st2" d="M1194.1,118.2l-50.1-6.5c1.7,0.2,3.5,0.4,5.3,0.5c2,0.1,4.2,0.3,6.6,0.6l50.1,6.5c-2.4-0.3-4.6-0.5-6.6-0.6
				C1197.6,118.5,1195.8,118.4,1194.1,118.2z"/>
		</g>
		<g>
			<path class="st1" d="M1174.3,13.6l50.1,6.5c-5.3-0.7-11.2-0.9-17.5-0.8l-50.1-6.5C1163.2,12.7,1169,12.9,1174.3,13.6z"/>
		</g>
		<g>
			<polygon class="st1" points="1193,109.6 1143,103 1143,98.6 1193.1,105.1 			"/>
		</g>
		<g>
			<path class="st1" d="M1176.8,199.6l-50.1-6.5c0.8,0.1,1.7,0.1,2.6,0.1c4.8-0.1,7.9-2.5,9.8-7.2c1.9-4.6,2-9.6,0.5-14.8
				c-1.5-5.2-4.8-9.3-10-12.1l50.1,6.5c5.2,2.8,8.5,6.9,10,12.1c1.5,5.2,1.3,10.2-0.5,14.8c-1.9,4.7-5,7-9.8,7.2
				C1178.5,199.7,1177.6,199.7,1176.8,199.6z"/>
		</g>
		<g>
			<path class="st1" d="M1133.1,73.6l50.1,6.5c3.6,0.5,6.1,2.3,7.5,5.6c1.7,3.9,2.5,10.4,2.4,19.4l-50.1-6.5
				c0.1-9-0.7-15.4-2.4-19.4C1139.2,75.9,1136.7,74.1,1133.1,73.6z"/>
		</g>
		<g>
			<path class="st1" d="M1115.6,155.4l50.1,6.5c5.1,0.7,9.8,1.9,14.1,3.7l-50.1-6.5C1125.4,157.3,1120.8,156,1115.6,155.4z"/>
		</g>
		<g>
			<polygon class="st1" points="1180.9,20.2 1130.9,13.7 1156.8,12.9 1206.9,19.4 			"/>
		</g>
		<g>
			<polygon class="st1" points="1154.7,21 1104.6,14.5 1130.9,13.7 1180.9,20.2 			"/>
		</g>
		<g>
			<path class="st1" d="M1154.4,160.9l-50.1-6.5c-7.2-0.9-16.3-3-27.3-6.2l50.1,6.5C1138.1,157.9,1147.2,159.9,1154.4,160.9z"/>
		</g>
		<g>
			<path class="st1" d="M1127.2,154.6l-50.1-6.5c-9-2.9-16-7.1-21.2-12.5l50.1,6.5C1111.1,147.6,1118.2,151.7,1127.2,154.6z"/>
		</g>
		<g>
			<path class="st1" d="M1135.6,259.6l-50.1-6.5c-14.5-1.9-25.4-7.1-32.6-15.5c-9.8-11.6-14.6-30.6-14.4-57.1l50.1,6.5
				c-0.3,26.5,4.5,45.6,14.4,57.1C1110.2,252.5,1121.1,257.7,1135.6,259.6z"/>
		</g>
		<g>
			<polygon class="st1" points="1088.7,186.9 1038.6,180.4 1038.8,166 1088.8,172.6 			"/>
		</g>
		<g>
			<polygon class="st1" points="1088.8,172.6 1038.8,166 1116.9,163.7 1167,170.2 			"/>
		</g>
		<g>
			<path class="st2" d="M1206.9,19.4c23.5-0.7,40.2,4.7,50.1,16.3c9.8,11.6,14.6,30.7,14.4,57.5l-0.1,14.1l-78.2,2.4l0-4.5
				c0.1-9-0.7-15.4-2.4-19.4c-1.7-3.9-5.1-5.8-10.1-5.7c-4.9,0.2-8.2,2.5-9.9,7.2c-1.8,4.6-2,9.6-0.5,15c1.4,5.3,4.8,9.4,10.1,12.3
				c5.5,2.4,11.9,3.8,19.2,4.2c8.1,0.4,19.2,2.5,33.2,6.5c9,3.1,16.1,7.3,21.4,12.5c6.5,6.8,10.9,15.2,13.1,25.2
				c2.2,10,3.3,21.4,3.2,34.2c-0.2,21.2-5.9,36.6-16.9,46.3c-11.1,9.7-27.2,14.9-48.3,15.5l-26,0.8l-26,0.8
				c-23.6,0.7-40.2-4.7-50.1-16.3c-9.8-11.6-14.6-30.6-14.4-57.1l0.1-14.4l78.2-2.4l0,4.8c-0.1,9,0.7,15.4,2.4,19.2
				c1.7,3.8,5,5.7,10.1,5.5c4.8-0.1,7.9-2.5,9.8-7.2c1.9-4.6,2-9.6,0.5-14.8c-1.5-5.2-4.8-9.3-10-12.1c-5.7-2.4-12.2-3.8-19.4-4.2
				c-8-0.4-19-2.6-33.2-6.8c-9-2.9-16-7.1-21.2-12.5c-6.5-6.6-10.9-14.9-13.1-24.9s-3.3-21.5-3.2-34.5c0.2-21,5.8-36.3,16.9-46.1
				c11.1-9.8,27.1-15,48.1-15.7l26.2-0.8L1206.9,19.4z"/>
		</g>
		<g>
			<path class="st1" d="M1106,142.1l-50.1-6.5c-6.5-6.6-10.9-14.9-13.1-24.9s-3.3-21.5-3.2-34.5c0.2-21,5.8-36.3,16.9-46.1
				c11.1-9.8,27.1-15,48.1-15.7l50.1,6.5c-20.9,0.6-37,5.9-48.1,15.7c-11.1,9.8-16.7,25.2-16.9,46.1c-0.1,13,0.9,24.5,3.2,34.5
				S1099.5,135.5,1106,142.1z"/>
		</g>
	</g>
	<g class="st0">
		<g>
			<polygon class="st1" points="1012.9,264.6 962.8,258.1 958.2,228.3 1008.3,234.8 			"/>
		</g>
		<g>
			<polygon class="st1" points="998.2,175.6 948.1,169.1 938.8,111.3 988.9,117.9 			"/>
		</g>
		<g>
			<polygon class="st2" points="988.9,117.9 938.8,111.3 938.1,104.2 988.2,110.7 			"/>
		</g>
		<g>
			<polygon class="st1" points="977.2,176.3 927.1,169.7 948.1,169.1 998.2,175.6 			"/>
		</g>
		<g>
			<polygon class="st1" points="989.3,26 939.2,19.5 978.2,18.3 1028.2,24.8 			"/>
		</g>
		<g>
			<polygon class="st1" points="950.3,27.2 900.3,20.7 939.2,19.5 989.3,26 			"/>
		</g>
		<g>
			<polygon class="st1" points="896,268.2 846,261.7 900.3,20.7 950.3,27.2 			"/>
		</g>
		<g>
			<path class="st2" d="M1028.2,24.8l49.6,237.8l-64.9,2l-4.6-29.8l-41.8,1.3l-5.5,30.1l-64.9,2l54.3-241l39-1.2L1028.2,24.8z
				 M977.2,176.3l21-0.6l-9.3-57.8l-0.7-7.2l-0.6,7.2L977.2,176.3"/>
		</g>
	</g>
	<g class="st0">
		<g>
			<polygon class="st1" points="808.1,185.9 758,179.4 758.1,174.6 808.1,181.1 			"/>
		</g>
		<g>
			<polygon class="st1" points="808.1,181.1 758.1,174.6 836,172.2 886,178.7 			"/>
		</g>
		<g>
			<path class="st1" d="M789.8,25.3l50.1,6.5c-5.3-0.7-11-0.9-17.3-0.7l-50.1-6.5C778.8,24.4,784.5,24.6,789.8,25.3z"/>
		</g>
		<g>
			<polygon class="st1" points="808.7,121.2 758.6,114.7 758.7,109.9 808.8,116.5 			"/>
		</g>
		<g>
			<path class="st1" d="M792.2,211.3l-50.1-6.5c0.8,0.1,1.7,0.1,2.6,0.1c5-0.2,8.5-2.2,10.3-6.1c1.9-3.9,2.8-10.4,2.9-19.4l50.1,6.5
				c-0.1,9-1.1,15.4-2.9,19.4c-1.9,3.9-5.3,6-10.3,6.1C793.9,211.4,793.1,211.4,792.2,211.3z"/>
		</g>
		<g>
			<path class="st1" d="M748.5,85.3l50.1,6.5c3.6,0.5,6.2,2.3,7.7,5.6c1.8,3.9,2.6,10.3,2.5,19.1l-50.1-6.5
				c0.1-8.8-0.8-15.1-2.5-19.1C754.7,87.6,752.1,85.8,748.5,85.3z"/>
		</g>
		<g>
			<polygon class="st1" points="796.6,31.9 746.5,25.4 772.5,24.6 822.6,31.1 			"/>
		</g>
		<g>
			<polygon class="st1" points="770.6,32.7 720.6,26.1 746.5,25.4 796.6,31.9 			"/>
		</g>
		<g>
			<path class="st1" d="M751,271.3l-50.1-6.5c-14.5-1.9-25.3-7.1-32.4-15.6c-9.8-11.6-14.5-30.7-14.2-57.5l50.1,6.5
				c-0.3,26.7,4.5,45.9,14.2,57.5C725.7,264.3,736.6,269.4,751,271.3z"/>
		</g>
		<g>
			<polygon class="st1" points="704.4,198.3 654.3,191.8 654.7,147.8 704.8,154.3 			"/>
		</g>
		<g>
			<polygon class="st1" points="704.8,154.3 654.7,147.8 655.2,103.8 705.2,110.3 			"/>
		</g>
		<g>
			<path class="st2" d="M822.6,31.1c23.4-0.7,40,4.7,49.8,16.3c9.8,11.6,14.6,30.7,14.4,57.5l-0.1,14.1l-77.9,2.4l0-4.8
				c0.1-8.8-0.8-15.1-2.5-19.1c-1.8-3.9-5.2-5.8-10.2-5.7c-5,0.2-8.5,2.2-10.3,6.3c-1.9,4.1-2.8,10.5-2.9,19.2l0,4.8l-0.6,59.9
				l0,4.8c-0.1,9,0.8,15.4,2.5,19.2c1.8,3.8,5.2,5.7,10.2,5.5c5-0.2,8.5-2.2,10.3-6.1c1.9-3.9,2.8-10.4,2.9-19.4l0-4.8l77.9-2.4
				l-0.1,14.1c-0.3,26.7-5.4,46.2-15.5,58.4c-10.1,12.2-26.8,18.6-50.2,19.3l-26,0.8l-26,0.8c-23.4,0.7-39.9-4.7-49.7-16.3
				c-9.8-11.6-14.5-30.7-14.2-57.5l0.4-44l0.4-44c0.3-26.7,5.4-46.2,15.4-58.4c10-12.2,26.7-18.6,50-19.3l26-0.8L822.6,31.1z"/>
		</g>
		<g>
			<path class="st1" d="M705.2,110.3l-50.1-6.5c0.3-26.7,5.4-46.2,15.4-58.4c10-12.2,26.7-18.6,50-19.3l50.1,6.5
				c-23.4,0.7-40.1,7.2-50,19.3C710.6,64.2,705.5,83.6,705.2,110.3z"/>
		</g>
	</g>
	<g class="st0">
		<g>
			<polygon class="st1" points="593.3,192.4 543.3,185.9 543.3,181.1 593.4,187.6 			"/>
		</g>
		<g>
			<path class="st1" d="M575,31.8l50.1,6.5c-5.3-0.7-11-0.9-17.3-0.7l-50.1-6.5C564,30.9,569.8,31.2,575,31.8z"/>
		</g>
		<g>
			<polygon class="st1" points="593.4,187.6 543.3,181.1 543.9,121.3 594,127.8 			"/>
		</g>
		<g>
			<polygon class="st1" points="594,127.8 543.9,121.3 543.9,116.2 594,122.7 			"/>
		</g>
		<g>
			<path class="st1" d="M571.5,218.2l-50.1-6.5c7.8-0.2,13.3-2.4,16.7-6.3c3.3-4,5-10.5,5.1-19.5l50.1,6.5c-0.1,9-1.8,15.5-5.1,19.5
				C584.9,215.9,579.3,218,571.5,218.2z"/>
		</g>
		<g>
			<polygon class="st2" points="567.1,218.3 517,211.8 521.5,211.7 571.5,218.2 			"/>
		</g>
		<g>
			<path class="st1" d="M528.3,92.3l50.1,6.5c4.7,0.6,8.3,2.3,10.7,4.9c3.3,3.7,5,10,4.9,19l-50.1-6.5c0.1-9-1.5-15.3-4.9-19
				C536.7,94.5,533.1,92.9,528.3,92.3z"/>
		</g>
		<g>
			<polygon class="st1" points="581.9,38.4 531.8,31.9 557.8,31.1 607.8,37.6 			"/>
		</g>
		<g>
			<polygon class="st1" points="568.9,38.8 518.8,32.3 531.8,31.9 581.9,38.4 			"/>
		</g>
		<g>
			<polygon class="st1" points="556.1,39.2 506.1,32.7 518.8,32.3 568.9,38.8 			"/>
		</g>
		<g>
			<polygon class="st1" points="488.9,280.6 438.8,274.1 439.6,198.3 489.6,204.8 			"/>
		</g>
		<g>
			<polygon class="st1" points="489.6,204.8 439.6,198.3 440,154.3 490.1,160.9 			"/>
		</g>
		<g>
			<polygon class="st1" points="490.1,160.9 440,154.3 440.4,110.4 490.5,116.9 			"/>
		</g>
		<g>
			<polygon class="st1" points="490.5,116.9 440.4,110.4 441.2,34.6 491.2,41.2 			"/>
		</g>
		<g>
			<path class="st2" d="M657.6,53.9c9.8,11.6,14.6,30.7,14.4,57.5l-0.4,44l-0.4,44c-0.3,26.7-5.4,46.2-15.5,58.4
				c-10.1,12.2-26.8,18.6-50.2,19.3l-26,0.8l-13,0.4l-12.7,0.4l-64.9,2l0.7-75.7l0.4-44l0.4-44l0.7-75.7l64.9-2l12.7-0.4l13-0.4
				l26-0.8C631.2,36.9,647.8,42.3,657.6,53.9z M594,127.8l0.1-5.1c0.1-9-1.5-15.3-4.9-19c-3.3-3.7-8.9-5.4-16.7-5.2l-4.2,0.1
				l-0.3,29.9l-0.6,59.9l-0.3,29.9l4.4-0.1c7.8-0.2,13.3-2.4,16.7-6.3c3.3-4,5-10.5,5.1-19.5l0-4.8L594,127.8"/>
		</g>
		<g>
			<polygon class="st1" points="491.2,41.2 441.2,34.6 506.1,32.7 556.1,39.2 			"/>
		</g>
	</g>
	<g class="st0">
		<g>
			<polygon class="st1" points="378,199 328,192.5 328,187.7 378.1,194.2 			"/>
		</g>
		<g>
			<path class="st1" d="M359.7,38.4l50.1,6.5c-5.3-0.7-11.1-0.9-17.5-0.8l-50.1-6.5C348.5,37.5,354.4,37.7,359.7,38.4z"/>
		</g>
		<g>
			<polygon class="st1" points="378.1,194.2 328,187.7 328.6,127.8 378.7,134.3 			"/>
		</g>
		<g>
			<polygon class="st1" points="378.7,134.3 328.6,127.8 328.7,123 378.7,129.5 			"/>
		</g>
		<g>
			<path class="st1" d="M362.1,224.4l-50.1-6.5c0.8,0.1,1.8,0.2,2.7,0.1c5-0.2,8.5-2.2,10.3-6.1c1.9-3.9,2.8-10.4,2.9-19.4L378,199
				c-0.1,9-1.1,15.4-2.9,19.4c-1.9,3.9-5.3,6-10.3,6.1C363.8,224.5,362.9,224.5,362.1,224.4z"/>
		</g>
		<g>
			<path class="st1" d="M318.5,98.4l50.1,6.5c3.6,0.5,6.2,2.3,7.7,5.6c1.8,3.9,2.6,10.3,2.5,19.1l-50.1-6.5
				c0.1-8.8-0.8-15.1-2.5-19.1C324.7,100.7,322.1,98.9,318.5,98.4z"/>
		</g>
		<g>
			<polygon class="st1" points="366.6,44.9 316.5,38.4 342.2,37.7 392.3,44.2 			"/>
		</g>
		<g>
			<polygon class="st1" points="340.6,45.7 290.6,39.2 316.5,38.4 366.6,44.9 			"/>
		</g>
		<g>
			<path class="st1" d="M321,284.7l-50.1-6.5c-14.5-1.9-25.3-7.1-32.5-15.5c-9.8-11.6-14.6-30.7-14.4-57.5l50.1,6.5
				c-0.3,26.7,4.5,45.9,14.4,57.5C295.7,277.6,306.5,282.8,321,284.7z"/>
		</g>
		<g>
			<polygon class="st1" points="274.1,211.7 224,205.2 224.4,160.9 274.5,167.4 			"/>
		</g>
		<g>
			<polygon class="st1" points="274.5,167.4 224.4,160.9 224.9,116.9 274.9,123.4 			"/>
		</g>
		<g>
			<path class="st2" d="M442.2,60.4c9.8,11.6,14.5,30.7,14.2,57.5l-0.4,44l-0.4,44.3c-0.3,26.7-5.4,46.2-15.4,58.4
				c-10,12.2-26.7,18.6-50.3,19.3l-25.7,0.8l-26,0.8c-23.4,0.7-40-4.7-49.8-16.3c-9.8-11.6-14.6-30.7-14.4-57.5l0.4-44.3l0.4-44
				c0.3-26.7,5.4-46.2,15.5-58.4c10.1-12.2,26.8-18.6,50.2-19.3l26-0.8l25.7-0.8C415.8,43.4,432.5,48.9,442.2,60.4z M378.7,134.3
				l0-4.8c0.1-8.8-0.8-15.1-2.5-19.1c-1.8-3.9-5.2-5.8-10.2-5.7c-5.2,0.2-8.7,2.3-10.4,6.3c-1.8,4-2.7,10.5-2.8,19.2l0,4.8
				l-0.6,59.9l0,4.8c-0.1,9,0.7,15.4,2.4,19.2c1.7,3.8,5.1,5.7,10.3,5.5c5-0.2,8.5-2.2,10.3-6.1c1.9-3.9,2.8-10.4,2.9-19.4l0-4.8
				L378.7,134.3"/>
		</g>
		<g>
			<path class="st1" d="M274.9,123.4l-50.1-6.5c0.3-26.7,5.4-46.2,15.5-58.4c10.1-12.2,26.8-18.6,50.2-19.3l50.1,6.5
				c-23.4,0.7-40.1,7.2-50.2,19.3C280.4,77.2,275.2,96.7,274.9,123.4z"/>
		</g>
	</g>
	<g class="st0">
		<g>
			<path class="st1" d="M156.2,44.6l50.1,6.5c-5.3-0.7-11.1-0.9-17.3-0.7l-50.1-6.5C145.2,43.6,150.9,43.9,156.2,44.6z"/>
		</g>
		<g>
			<path class="st1" d="M112.4,105.1l50.1,6.5c3.2,0.4,5.8,1.2,7.7,2.3c3.4,2,5.1,5.9,5.1,11.7c-0.1,5.8-1.8,9.8-5.3,12l-50.1-6.5
				c3.5-2.2,5.3-6.2,5.3-12c0.1-5.8-1.6-9.7-5.1-11.7C118.2,106.3,115.6,105.5,112.4,105.1z"/>
		</g>
		<g>
			<path class="st1" d="M153.3,141.2l-50.1-6.5c7.6-0.2,13.2-1.5,16.6-3.6l50.1,6.5C166.4,139.7,160.9,141,153.3,141.2z"/>
		</g>
		<g>
			<polygon class="st2" points="149.1,141.3 99.1,134.8 103.2,134.7 153.3,141.2 			"/>
		</g>
		<g>
			<polygon class="st1" points="124,52.3 74,45.8 138.9,43.8 189,50.4 			"/>
		</g>
		<g>
			<polygon class="st1" points="69.8,293 19.7,286.5 20.6,197 70.6,203.5 			"/>
		</g>
		<g>
			<polygon class="st1" points="70.6,203.5 20.6,197 21.2,137.2 71.2,143.7 			"/>
		</g>
		<g>
			<polygon class="st1" points="71.2,143.7 21.2,137.2 21.3,122.2 71.4,128.7 			"/>
		</g>
		<g>
			<polygon class="st1" points="71.4,128.7 21.3,122.2 21.5,107.2 71.5,113.8 			"/>
		</g>
		<g>
			<polygon class="st1" points="71.5,113.8 21.5,107.2 21.7,77.3 71.8,83.8 			"/>
		</g>
		<g>
			<polygon class="st1" points="71.8,83.8 21.7,77.3 22,47.4 72.1,53.9 			"/>
		</g>
		<g>
			<polygon class="st1" points="72.1,53.9 22,47.4 74,45.8 124,52.3 			"/>
		</g>
		<g>
			<path class="st2" d="M238.9,66.6c9.9,11.6,14.7,30.4,14.2,56.6c-0.1,26.1-5.2,45.3-15.4,57.5c-10.2,12.2-26.9,18.6-50.3,19.3
				l-39,1.2l-0.9,89.5L69.8,293l0.9-89.5l0.6-59.9l0.1-15l0.1-15l0.3-29.9l0.3-29.9l51.9-1.6l64.9-2C212.3,49.6,229,55.1,238.9,66.6
				z M169.9,137.5c3.5-2.2,5.3-6.2,5.3-12c0.1-5.8-1.6-9.7-5.1-11.7c-3.4-2-9-2.9-16.6-2.6l-4.2,0.1l-0.1,15l-0.1,15l4.2-0.1
				C160.9,141,166.4,139.7,169.9,137.5"/>
		</g>
	</g>
</g>
</svg>
