<?xml version="1.0" encoding="utf-8"?>
<!-- Generator: Adobe Illustrator 25.4.1, SVG Export Plug-In . SVG Version: 6.00 Build 0)  -->
<svg version="1.1" id="Capa_1" xmlns="http://www.w3.org/2000/svg" xmlns:xlink="http://www.w3.org/1999/xlink" x="0px" y="0px"
	 viewBox="0 0 1920 1080" style="enable-background:new 0 0 1920 1080;" xml:space="preserve">
<style type="text/css">
	.st0{fill:#FFFFFF;}
	.st1{fill:#FF0000;}
	.st2{fill:none;}
	.st3{font-family:'Roboto-Regular';}
	.st4{font-size:30.9123px;}
	.st5{fill:#FFFFFF;stroke:#000000;stroke-miterlimit:10;}
	.st6{enable-background:new    ;}
	.st7{fill:#EC84EF;}
	.st8{fill:#EFEC84;}
	.st9{fill:#8487EF;}
</style>
<g>
	<path d="M435.9,887c-28.9,0-52.4-23.5-52.4-52.4V244.9c0-28.9,23.5-52.4,52.4-52.4h1135.2c28.9,0,52.4,23.5,52.4,52.4v589.7
		c0,28.9-23.5,52.4-52.4,52.4H435.9z"/>
	<path d="M1571.1,193c28.6,0,51.9,23.3,51.9,51.9v589.7c0,28.6-23.3,51.9-51.9,51.9H435.9c-28.6,0-51.9-23.3-51.9-51.9V244.9
		c0-28.6,23.3-51.9,51.9-51.9H1571.1 M1571.1,192H435.9c-29.2,0-52.9,23.7-52.9,52.9v589.7c0,29.2,23.7,52.9,52.9,52.9h1135.2
		c29.2,0,52.9-23.7,52.9-52.9V244.9C1624,215.7,1600.3,192,1571.1,192L1571.1,192z"/>
</g>
<rect x="968.4" y="509.5" class="st0" width="70.2" height="61.8"/>
<path class="st1" d="M1004.5,469.5h1.1c10.3,0,62.6,0.4,76.6,4.2c8.7,2.4,15.4,9.1,17.7,17.8c1.3,4.8,2.2,11.1,2.8,17.6l0.1,1.3
	l0.3,3.3l0.1,1.3c0.8,11.5,0.9,22.2,0.9,24.5v0.9c0,2.4-0.1,13.9-1,25.8l-0.1,1.3l-0.1,1.3c-0.6,7.2-1.6,14.3-2.9,19.5
	c-2.3,8.7-9.1,15.5-17.7,17.8c-14.6,3.9-69.9,4.2-77.5,4.2h-1.8c-3.9,0-19.9-0.1-36.7-0.7l-2.1-0.1l-1.1-0.1l-2.1-0.1l-2.1-0.1
	c-13.9-0.6-27.2-1.6-33.3-3.3c-8.7-2.3-15.4-9.1-17.7-17.8c-1.4-5.2-2.3-12.4-2.9-19.5l-0.1-1.3l-0.1-1.3c-0.6-8.5-1-17-1-25.5v-1.5
	c0-2.7,0.1-12,0.8-22.3l0.1-1.3l0-0.7l0.1-1.3l0.3-3.3l0.1-1.3c0.6-6.5,1.5-12.8,2.8-17.6c2.3-8.7,9.1-15.5,17.7-17.8
	c6.1-1.6,19.4-2.6,33.3-3.3l2.1-0.1l2.2-0.1l1.1,0l2.1-0.1c11.9-0.4,23.9-0.6,35.8-0.6L1004.5,469.5L1004.5,469.5z M983.8,509.7
	v60.4l52.1-30.2L983.8,509.7z"/>
<rect x="556.3" y="241.4" class="st2" width="732.9" height="55.3"/>
<text transform="matrix(1 0 0 1 556.293 264.5474)" class="st0 st3 st4">¿Comó es ser desarrollador en Argentina?</text>
<g>
	<circle class="st5" cx="463.5" cy="279.6" r="66.4"/>
	<g>
		<g class="st6">
			<g>
				<path class="st7" d="M439.4,310.6l-1.2-0.7c0.9-0.1,1.4-0.7,1.4-1.7l1.2,0.7C440.8,309.9,440.3,310.5,439.4,310.6z"/>
			</g>
			<g>
				<path class="st7" d="M443.7,299.6l1.2,0.7c-0.1,0-0.2-0.1-0.3,0l-1.2-0.7C443.5,299.6,443.6,299.6,443.7,299.6z"/>
			</g>
			<g>
				<polygon class="st7" points="440.8,308.9 439.6,308.3 439.6,305 440.8,305.7 				"/>
			</g>
			<g>
				<polygon class="st7" points="437.2,310.9 436,310.3 438.2,310 439.4,310.6 				"/>
			</g>
			<g>
				<path class="st7" d="M436.4,310.8l-1.2-0.7c0.2,0.1,0.5,0.2,0.9,0.1l1.2,0.7C436.9,311,436.6,311,436.4,310.8z"/>
			</g>
			<g>
				<path class="st7" d="M438.7,305.9l-1.2-0.7c-0.1-0.1-0.2-0.2-0.2-0.5l1.2,0.7C438.5,305.7,438.5,305.8,438.7,305.9z"/>
			</g>
			<g>
				<polygon class="st7" points="439,301 437.8,300.4 443.4,299.6 444.6,300.2 				"/>
			</g>
			<g>
				<polygon class="st7" points="438.5,305.4 437.2,304.8 437.2,301 438.5,301.7 				"/>
			</g>
			<g>
				<path class="st7" d="M441,297.8l-1.2-0.7c-0.1-0.1-0.2-0.2-0.2-0.5l1.2,0.7C440.8,297.5,440.9,297.7,441,297.8z"/>
			</g>
			<g>
				<path class="st7" d="M438.5,301.7l-1.2-0.7c0-0.4,0.2-0.6,0.6-0.7l1.2,0.7C438.6,301.1,438.5,301.3,438.5,301.7z"/>
			</g>
			<g>
				<polygon class="st7" points="440.8,297.3 439.6,296.6 439.6,294.8 440.8,295.5 				"/>
			</g>
			<g>
				<path class="st7" d="M433.2,315.5l-1.2-0.7c-1.3-0.7-1.9-2.1-1.9-4.3l1.2,0.7C431.3,313.4,432,314.8,433.2,315.5z"/>
			</g>
			<g>
				<path class="st7" d="M439.1,293.6l1.2,0.7c0.4,0.2,0.5,0.6,0.5,1.2l-1.2-0.7C439.6,294.2,439.4,293.8,439.1,293.6z"/>
			</g>
			<g>
				<path class="st7" d="M442,289l1.2,0.7c-0.8-0.4-1.8-0.6-3-0.4l-1.2-0.7C440.2,288.4,441.2,288.5,442,289z"/>
			</g>
			<g>
				<polygon class="st7" points="436.4,289.8 435.1,289.1 439,288.6 440.2,289.2 				"/>
			</g>
			<g>
				<polygon class="st7" points="431.3,311.2 430.1,310.5 430.1,295.2 431.4,295.9 				"/>
			</g>
			<g>
				<path class="st8" d="M440.2,289.2c3.2-0.5,5,1.2,5,4.7l0,2.8c0,0.4-0.2,0.6-0.6,0.7l-3.2,0.5c-0.4,0.1-0.5-0.1-0.5-0.5l0-1.8
					c0-1-0.5-1.4-1.4-1.3l-2.2,0.3c-0.9,0.1-1.4,0.7-1.4,1.7l0,13.5c0,1,0.5,1.4,1.4,1.3l2.2-0.3c0.9-0.1,1.4-0.7,1.4-1.7l0-3.2
					L439,306c-0.4,0.1-0.5-0.1-0.5-0.5l0-3.7c0-0.4,0.2-0.6,0.6-0.7l5.6-0.8c0.3,0,0.5,0.1,0.5,0.5l0,8.5c0,3.5-1.8,5.6-5,6.1
					l-3.9,0.5c-3.2,0.5-5-1.2-5-4.7l0-15.4c0-3.5,1.7-5.6,5-6.1L440.2,289.2z"/>
			</g>
			<g>
				<path class="st7" d="M431.4,295.9l-1.2-0.7c0-3.5,1.7-5.6,5-6.1l1.2,0.7C433.1,290.2,431.4,292.3,431.4,295.9z"/>
			</g>
		</g>
		<g class="st6">
			<g>
				<path class="st7" d="M460.9,312.3l-1.2-0.7c-0.1-0.1-0.2-0.2-0.2-0.4l1.2,0.7C460.7,312.1,460.8,312.3,460.9,312.3z"/>
			</g>
			<g>
				<polygon class="st7" points="460.7,311.9 459.4,311.3 458.3,306.7 459.6,307.4 				"/>
			</g>
			<g>
				<polygon class="st7" points="454.1,303.8 452.9,303.2 457.3,302.5 458.5,303.2 				"/>
			</g>
			<g>
				<path class="st7" d="M447.7,314.2l-1.2-0.7c-0.1-0.1-0.2-0.3-0.1-0.5l1.2,0.7C447.5,313.9,447.6,314.1,447.7,314.2z"/>
			</g>
			<g>
				<polygon class="st7" points="458.5,303.2 457.3,302.5 455.1,292.7 456.3,293.4 				"/>
			</g>
			<g>
				<path class="st7" d="M457.9,286l1.2,0.7c-0.1,0-0.2-0.1-0.3,0l-1.2-0.7C457.7,285.9,457.8,286,457.9,286z"/>
			</g>
			<g>
				<polygon class="st7" points="454,287.3 452.7,286.6 457.5,286 458.8,286.6 				"/>
			</g>
			<g>
				<polygon class="st7" points="447.6,313.7 446.4,313 452.1,287.2 453.4,287.9 				"/>
			</g>
			<g>
				<path class="st7" d="M453.4,287.9l-1.2-0.7c0.1-0.4,0.3-0.6,0.6-0.6l1.2,0.7C453.7,287.4,453.4,287.5,453.4,287.9z"/>
			</g>
			<g>
				<path class="st8" d="M465,311.2c0.1,0.4-0.1,0.6-0.5,0.7l-3.4,0.5c-0.3,0-0.5-0.1-0.5-0.4l-1.1-4.5l-6.5,0.9l-1.1,4.8
					c-0.1,0.3-0.2,0.6-0.6,0.6l-3.4,0.5c-0.4,0.1-0.5-0.1-0.4-0.6l5.8-25.7c0.1-0.4,0.3-0.6,0.6-0.6l4.8-0.7c0.3,0,0.5,0.1,0.6,0.4
					L465,311.2z M454.1,303.8l4.3-0.6l-2.2-9.8L454.1,303.8"/>
			</g>
		</g>
		<g class="st6">
			<g>
				<path class="st7" d="M482.5,309.3l-1.2-0.7c-0.2-0.1-0.3-0.3-0.3-0.6l1.2,0.7C482.2,309,482.3,309.2,482.5,309.3z"/>
			</g>
			<g>
				<path class="st7" d="M475.5,310.2l-1.2-0.7c-0.2-0.1-0.3-0.2-0.3-0.5l1.2,0.7C475.2,310,475.3,310.2,475.5,310.2z"/>
			</g>
			<g>
				<polygon class="st7" points="482.2,308.7 481,308 481,293.4 482.3,294 				"/>
			</g>
			<g>
				<path class="st7" d="M485.4,282.2l1.2,0.7c-0.1-0.1-0.3-0.1-0.4-0.1l-1.2-0.7C485.1,282.1,485.3,282.1,485.4,282.2z"/>
			</g>
			<g>
				<path class="st7" d="M467.4,311.4l-1.2-0.7c-0.2-0.1-0.3-0.3-0.3-0.6l1.2,0.7C467.1,311.1,467.2,311.3,467.4,311.4z"/>
			</g>
			<g>
				<polygon class="st7" points="481.6,283.4 480.4,282.8 484.9,282.1 486.2,282.8 				"/>
			</g>
			<g>
				<polygon class="st7" points="477,301.3 475.8,300.7 479.6,283.5 480.9,284.2 				"/>
			</g>
			<g>
				<path class="st7" d="M480.9,284.2l-1.2-0.7c0.1-0.4,0.3-0.7,0.8-0.7l1.2,0.7C481.2,283.5,481,283.7,480.9,284.2z"/>
			</g>
			<g>
				<polygon class="st7" points="475.2,309.8 474,309.1 470.7,294.8 472,295.5 				"/>
			</g>
			<g>
				<path class="st7" d="M471.7,284.1l1.2,0.7c-0.1-0.1-0.3-0.1-0.4-0.1l-1.2-0.7C471.4,284,471.5,284,471.7,284.1z"/>
			</g>
			<g>
				<polygon class="st7" points="467.9,285.4 466.7,284.7 471.2,284 472.4,284.7 				"/>
			</g>
			<g>
				<polygon class="st7" points="467.1,310.8 465.9,310.1 466,285.5 467.2,286.2 				"/>
			</g>
			<g>
				<path class="st8" d="M486.2,282.8c0.4-0.1,0.7,0.2,0.7,0.6l0,24.6c0,0.5-0.2,0.8-0.7,0.8l-3.2,0.5c-0.4,0.1-0.7-0.2-0.7-0.6
					l0-14.6l-0.2,0l-3.3,15.2c-0.1,0.4-0.3,0.7-0.8,0.7l-2,0.3c-0.4,0.1-0.7-0.1-0.8-0.5l-3.2-14.3l-0.2,0l0,14.6
					c0,0.5-0.2,0.8-0.7,0.8l-3.2,0.4c-0.4,0.1-0.7-0.2-0.7-0.6l0-24.6c0-0.5,0.2-0.8,0.7-0.8l4.6-0.6c0.4-0.1,0.7,0.1,0.8,0.5
					l3.8,16.1l3.9-17.2c0.1-0.4,0.3-0.7,0.8-0.7L486.2,282.8z"/>
			</g>
			<g>
				<path class="st7" d="M467.2,286.2l-1.2-0.7c0-0.5,0.2-0.8,0.7-0.8l1.2,0.7C467.4,285.4,467.2,285.7,467.2,286.2z"/>
			</g>
		</g>
		<g class="st6">
			<g>
				<path class="st7" d="M502.6,300.9l1.2,0.7c-0.1,0-0.2-0.1-0.4,0l-1.2-0.7C502.4,300.8,502.6,300.8,502.6,300.9z"/>
			</g>
			<g>
				<path class="st7" d="M500.6,290.7l1.2,0.7c-0.1,0-0.2-0.1-0.3,0l-1.2-0.7C500.4,290.6,500.5,290.7,500.6,290.7z"/>
			</g>
			<g>
				<polygon class="st7" points="495,302.7 493.7,302 502.3,300.8 503.5,301.5 				"/>
			</g>
			<g>
				<path class="st7" d="M490.5,308.2l-1.2-0.7c-0.1-0.1-0.2-0.2-0.2-0.5l1.2,0.7C490.3,307.9,490.4,308.1,490.5,308.2z"/>
			</g>
			<g>
				<path class="st7" d="M502.7,279.7l1.2,0.7c-0.1,0-0.2-0.1-0.4,0l-1.2-0.7C502.5,279.6,502.6,279.7,502.7,279.7z"/>
			</g>
			<g>
				<polygon class="st7" points="495,292.2 493.8,291.6 500.3,290.7 501.5,291.3 				"/>
			</g>
			<g>
				<polygon class="st7" points="490.8,282.1 489.6,281.5 502.3,279.7 503.5,280.3 				"/>
			</g>
			<g>
				<polygon class="st7" points="490.3,307.7 489,307 489.1,282.1 490.3,282.8 				"/>
			</g>
			<g>
				<path class="st8" d="M503.5,280.3c0.4-0.1,0.5,0.1,0.5,0.5l0,3.7c0,0.4-0.1,0.7-0.6,0.7l-8.5,1.2l0,5.7l6.5-0.9
					c0.3,0,0.5,0.1,0.5,0.6l0,3.7c0,0.4-0.2,0.7-0.6,0.7l-6.5,0.9l0,5.5l8.5-1.2c0.4-0.1,0.5,0.1,0.5,0.5l0,3.7
					c0,0.4-0.1,0.6-0.6,0.7l-12.7,1.8c-0.3,0-0.5-0.2-0.5-0.5l0-24.9c0-0.4,0.2-0.6,0.5-0.7L503.5,280.3z"/>
			</g>
			<g>
				<path class="st7" d="M490.3,282.8l-1.2-0.7c0-0.4,0.2-0.6,0.5-0.7l1.2,0.7C490.5,282.2,490.3,282.4,490.3,282.8z"/>
			</g>
		</g>
	</g>
	<g>
		<g class="st6">
			<g>
				<polygon class="st9" points="424,279.6 423,279 422.5,276.1 423.4,276.6 				"/>
			</g>
			<g>
				<polygon class="st9" points="420.1,271.1 419.1,270.6 421.4,270.2 422.4,270.8 				"/>
			</g>
			<g>
				<polygon class="st9" points="422.4,270.8 421.4,270.2 420.3,264.6 421.3,265.1 				"/>
			</g>
			<g>
				<polygon class="st9" points="421.3,265.1 420.3,264.6 420.2,263.8 421.2,264.4 				"/>
			</g>
			<g>
				<polygon class="st9" points="421.3,255.9 420.3,255.4 424.5,254.8 425.4,255.3 				"/>
			</g>
			<g>
				<polygon class="st9" points="417.1,256.5 416.1,256 420.3,255.4 421.3,255.9 				"/>
			</g>
			<g>
				<polygon class="st9" points="411.5,281.3 410.5,280.8 416.1,256 417.1,256.5 				"/>
			</g>
			<g>
				<path class="st7" d="M425.4,255.3l5.5,23.3l-7,1l-0.6-2.9l-4.5,0.6l-0.5,3.1l-7,1l5.6-24.8l4.2-0.6L425.4,255.3z M420.1,271.1
					l2.3-0.3l-1-5.7l-0.1-0.7l-0.1,0.7L420.1,271.1"/>
			</g>
		</g>
		<g class="st6">
			<g>
				<polygon class="st9" points="441.4,271.1 440.4,270.6 446,269.8 447,270.3 				"/>
			</g>
			<g>
				<polygon class="st9" points="438.6,253.4 437.6,252.9 440.4,252.5 441.4,253 				"/>
			</g>
			<g>
				<polygon class="st9" points="433,278.3 432,277.8 432.1,259.7 433.1,260.2 				"/>
			</g>
			<g>
				<polygon class="st9" points="433.1,254.2 432.1,253.7 437.6,252.9 438.6,253.4 				"/>
			</g>
			<g>
				<polygon class="st9" points="433.1,260.2 432.1,259.7 432.1,253.7 433.1,254.2 				"/>
			</g>
			<g>
				<polygon class="st7" points="441.4,253 441.4,259 441.4,262.1 441.4,268.1 441.4,271.1 447,270.3 447,276.3 433,278.3 
					433.1,260.2 433.1,254.2 438.6,253.4 				"/>
			</g>
		</g>
		<g class="st6">
			<g>
				<polygon class="st9" points="458,268.8 457,268.2 462.5,267.4 463.5,268 				"/>
			</g>
			<g>
				<polygon class="st9" points="458,259.7 457,259.2 462.6,258.4 463.6,258.9 				"/>
			</g>
			<g>
				<polygon class="st9" points="449.6,276 448.6,275.4 448.6,269.4 449.6,269.9 				"/>
			</g>
			<g>
				<polygon class="st9" points="449.6,269.9 448.6,269.4 448.6,251.3 449.6,251.9 				"/>
			</g>
			<g>
				<polygon class="st9" points="449.6,251.9 448.6,251.3 462.6,249.4 463.6,249.9 				"/>
			</g>
			<g>
				<polygon class="st7" points="463.6,249.9 463.6,255.9 458,256.7 458,259.7 463.6,258.9 463.5,265 458,265.8 458,268.8 
					463.5,268 463.5,274 457.9,274.8 455.2,275.2 449.6,276 449.6,269.9 449.6,251.9 				"/>
			</g>
		</g>
		<g class="st6">
			<g>
				<path d="M484.8,258.4l1,0.5c0,0-0.1,0-0.1-0.1l-1-0.5C484.8,258.3,484.8,258.3,484.8,258.4z"/>
			</g>
			<g>
				<polygon class="st9" points="479.2,271.8 478.2,271.2 478.2,265.2 479.2,265.7 				"/>
			</g>
			<g>
				<polygon class="st9" points="479.2,265.7 478.2,265.2 478.2,264.7 479.2,265.3 				"/>
			</g>
			<g>
				<path class="st9" d="M477.4,262.7l1,0.5c0.1,0,0.2,0.1,0.2,0.2c0.4,0.3,0.6,0.9,0.6,1.9l-1-0.5c0-0.9-0.2-1.5-0.6-1.9
					C477.6,262.8,477.5,262.8,477.4,262.7z"/>
			</g>
			<g>
				<path class="st9" d="M477.8,254.1l1,0.5c0.3,0.2,0.5,0.5,0.5,1.1c0,0.6-0.2,1-0.6,1.3l-1-0.5c0.4-0.3,0.6-0.7,0.6-1.3
					C478.2,254.6,478.1,254.3,477.8,254.1z"/>
			</g>
			<g>
				<path class="st9" d="M476.9,257.6l-1-0.5c0.8-0.1,1.4-0.3,1.8-0.6l1,0.5C478.3,257.2,477.7,257.4,476.9,257.6z"/>
			</g>
			<g>
				<polygon class="st9" points="476.4,257.6 475.4,257.1 475.9,257 476.9,257.6 				"/>
			</g>
			<g>
				<path class="st9" d="M484.2,247.4l1,0.5c-1.1-0.6-2.6-0.7-4.6-0.5l-1-0.5C481.6,246.7,483.2,246.8,484.2,247.4z"/>
			</g>
			<g>
				<polygon class="st9" points="468.1,273.3 467.1,272.8 467.1,266.8 468.1,267.3 				"/>
			</g>
			<g>
				<polygon class="st9" points="468.1,267.3 467.1,266.8 467.1,263.8 468.1,264.3 				"/>
			</g>
			<g>
				<polygon class="st9" points="468.1,264.3 467.1,263.8 467.1,260.8 468.1,261.3 				"/>
			</g>
			<g>
				<polygon class="st9" points="473.7,248.5 472.7,247.9 479.6,247 480.6,247.5 				"/>
			</g>
			<g>
				<polygon class="st9" points="468.1,261.3 467.1,260.8 467.1,257.8 468.1,258.3 				"/>
			</g>
			<g>
				<polygon class="st9" points="468.1,258.3 467.1,257.8 467.1,254.8 468.1,255.3 				"/>
			</g>
			<g>
				<polygon class="st9" points="468.1,255.3 467.1,254.8 467.1,248.7 468.1,249.3 				"/>
			</g>
			<g>
				<path class="st7" d="M487.5,261.5c0,0.2,0.1,0.5,0.1,0.7c0,0.2,0,0.5,0,0.8c0,0.5,0,1,0,1.6c0,1.5,0,2.9,0,4.1c0,1.2,0,1.8,0,2
					c-0.9,0.1-1.6,0.2-2.3,0.3c-0.7,0.1-1.5,0.2-2.4,0.3c-0.9,0.1-1.7,0.2-2.3,0.3l-1.4,0.2l0-6v-0.5c0-0.9-0.2-1.5-0.6-1.9
					c-0.4-0.3-1-0.4-1.8-0.3l-0.4,0.1l0,3l0,6l-2.8,0.4l-5.6,0.8l0-6l0-3l0-3l0-3l0-3l0-6l5.6-0.8l7-1c2.5-0.4,4.3,0,5.4,1
					c1.1,1,1.6,2.9,1.6,5.6c0,0.3,0,0.5,0,0.8c0,0.2,0,0.5-0.1,0.7c-0.1,0.5-0.2,1-0.4,1.4c-0.2,0.4-0.4,0.7-0.6,1
					c-0.2,0.3-0.5,0.5-0.8,0.8c0.3,0.2,0.6,0.3,0.8,0.5c0.2,0.2,0.4,0.5,0.6,0.8C487.3,260.5,487.4,261,487.5,261.5z M478.7,257
					c0.4-0.3,0.6-0.7,0.6-1.3c0-0.6-0.2-1-0.6-1.1c-0.4-0.2-1-0.2-1.8-0.1l-0.4,0.1l0,1.5l0,1.5l0.4-0.1
					C477.7,257.4,478.3,257.2,478.7,257"/>
			</g>
			<g>
				<polygon class="st9" points="468.1,249.3 467.1,248.7 472.7,247.9 473.7,248.5 				"/>
			</g>
		</g>
		<g class="st6">
			<g>
				<polygon class="st9" points="494.5,269.6 493.5,269.1 493.5,263.1 494.5,263.6 				"/>
			</g>
			<g>
				<polygon class="st9" points="494.5,263.6 493.5,263.1 493.5,260.1 494.5,260.6 				"/>
			</g>
			<g>
				<polygon class="st9" points="502.9,244.4 501.9,243.8 507.5,243 508.5,243.6 				"/>
			</g>
			<g>
				<polygon class="st9" points="494.5,260.6 493.5,260.1 493.5,254.1 494.5,254.6 				"/>
			</g>
			<g>
				<polygon class="st9" points="494.5,254.6 493.5,254.1 493.5,251 494.5,251.6 				"/>
			</g>
			<g>
				<polygon class="st9" points="489,246.3 488,245.8 501.9,243.8 502.9,244.4 				"/>
			</g>
			<g>
				<polygon class="st9" points="488.9,252.4 487.9,251.8 488,245.8 489,246.3 				"/>
			</g>
			<g>
				<polygon class="st7" points="508.5,243.6 508.5,249.6 502.9,250.4 502.9,262.5 502.9,268.5 497.3,269.2 494.5,269.6 
					494.5,263.6 494.5,260.6 494.5,254.6 494.5,251.6 488.9,252.4 489,246.3 502.9,244.4 				"/>
			</g>
		</g>
	</g>
</g>
</svg>
