<?xml version="1.0" encoding="utf-8"?>
<!-- Generator: Adobe Illustrator 25.4.1, SVG Export Plug-In . SVG Version: 6.00 Build 0)  -->
<svg version="1.1" id="Capa_1" xmlns="http://www.w3.org/2000/svg" xmlns:xlink="http://www.w3.org/1999/xlink" x="0px" y="0px"
	 viewBox="0 0 1920 1080" style="enable-background:new 0 0 1920 1080;" xml:space="preserve">
<style type="text/css">
	.st0{fill:#FFFFFF;}
	.st1{fill:#FF0000;}
	.st2{fill:none;}
	.st3{font-family:'Roboto-Regular';}
	.st4{font-size:48px;}
	.st5{fill:#FFFFFF;stroke:#000000;stroke-miterlimit:10;}
	.st6{enable-background:new    ;}
	.st7{fill:#EC84EF;}
	.st8{fill:#EFEC84;}
	.st9{fill:#8487EF;}
</style>
<g>
	<path d="M48.9,1079.5c-28.9,0-52.4-23.5-52.4-52.4V52.9C-3.5,24,20,0.5,48.9,0.5h1821.2c28.9,0,52.4,23.5,52.4,52.4v974.2
		c0,28.9-23.5,52.4-52.4,52.4H48.9z"/>
	<path d="M1870.1,1c28.6,0,51.9,23.3,51.9,51.9v974.2c0,28.6-23.3,51.9-51.9,51.9H48.9c-28.6,0-51.9-23.3-51.9-51.9V52.9
		C-3,24.3,20.3,1,48.9,1H1870.1 M1870.1,0H48.9C19.7,0-4,23.7-4,52.9v974.2c0,29.2,23.7,52.9,52.9,52.9h1821.2
		c29.2,0,52.9-23.7,52.9-52.9V52.9C1923,23.7,1899.3,0,1870.1,0L1870.1,0z"/>
</g>
<rect x="905" y="493" class="st0" width="109" height="96"/>
<path class="st1" d="M961,430.9h1.7c16,0.1,97.1,0.6,119,6.5c13.5,3.7,24,14.2,27.6,27.7c2,7.4,3.4,17.2,4.3,27.3l0.2,2l0.4,5.1
	l0.2,2c1.3,17.8,1.4,34.5,1.4,38.1v1.5c0,3.8-0.2,21.6-1.6,40.1l-0.2,2l-0.2,2c-1,11.1-2.4,22.2-4.6,30.3
	c-3.6,13.5-14.1,24-27.6,27.7c-22.6,6.1-108.5,6.5-120.4,6.5h-2.8c-6,0-30.9-0.1-57-1l-3.3-0.1l-1.7-0.1l-3.3-0.1l-3.3-0.1
	c-21.6-1-42.2-2.5-51.7-5.1c-13.5-3.6-24-14.2-27.6-27.6c-2.2-8.1-3.6-19.2-4.6-30.3l-0.2-2l-0.2-2c-1-13.2-1.5-26.4-1.6-39.7v-2.4
	c0-4.2,0.2-18.7,1.2-34.6l0.1-2l0.1-1l0.2-2l0.4-5.1l0.2-2c0.9-10.1,2.3-19.9,4.3-27.3c3.6-13.5,14.1-24,27.6-27.7
	c9.5-2.5,30.1-4.1,51.7-5.1l3.3-0.1l3.4-0.1l1.7-0.1l3.3-0.1c18.5-0.6,37.1-0.9,55.6-1L961,430.9L961,430.9z M928.9,493.4v93.8
	l81-46.9L928.9,493.4z"/>
<rect x="265.1" y="76.7" class="st2" width="1138.1" height="85.9"/>
<text transform="matrix(1 0 0 1 265.0854 112.6504)" class="st0 st3 st4">¿Comó es ser desarrollador en Argentina?</text>
<g>
	<circle class="st5" cx="121.1" cy="136" r="103"/>
	<g>
		<g class="st6">
			<g>
				<path class="st7" d="M83.6,184.2l-1.9-1c1.4-0.2,2.1-1.1,2.1-2.6l1.9,1C85.8,183.1,85,184,83.6,184.2z"/>
			</g>
			<g>
				<path class="st7" d="M90.3,167.1l1.9,1c-0.1-0.1-0.3-0.1-0.5-0.1l-1.9-1C90,167,90.2,167,90.3,167.1z"/>
			</g>
			<g>
				<polygon class="st7" points="85.8,181.6 83.9,180.5 83.9,175.5 85.8,176.5 				"/>
			</g>
			<g>
				<polygon class="st7" points="80.2,184.7 78.3,183.6 81.7,183.2 83.6,184.2 				"/>
			</g>
			<g>
				<path class="st7" d="M78.8,184.5l-1.9-1c0.3,0.2,0.8,0.2,1.3,0.2l1.9,1C79.6,184.8,79.2,184.7,78.8,184.5z"/>
			</g>
			<g>
				<path class="st7" d="M82.5,176.9l-1.9-1c-0.2-0.1-0.3-0.4-0.3-0.7l1.9,1C82.1,176.5,82.2,176.8,82.5,176.9z"/>
			</g>
			<g>
				<polygon class="st7" points="83,169.3 81.1,168.3 89.8,167 91.7,168.1 				"/>
			</g>
			<g>
				<polygon class="st7" points="82.1,176.1 80.2,175.1 80.2,169.3 82.1,170.4 				"/>
			</g>
			<g>
				<path class="st7" d="M86.1,164.2l-1.9-1c-0.2-0.1-0.3-0.4-0.3-0.7l1.9,1C85.8,163.8,85.9,164.1,86.1,164.2z"/>
			</g>
			<g>
				<path class="st7" d="M82.1,170.4l-1.9-1c0-0.6,0.3-1,0.9-1l1.9,1C82.4,169.4,82.1,169.7,82.1,170.4z"/>
			</g>
			<g>
				<polygon class="st7" points="85.8,163.5 83.9,162.4 83.9,159.6 85.8,160.6 				"/>
			</g>
			<g>
				<path class="st7" d="M74,191.7l-1.9-1c-2-1.1-3-3.3-3-6.7l1.9,1C71.1,188.4,72.1,190.7,74,191.7z"/>
			</g>
			<g>
				<path class="st7" d="M83.1,157.8l1.9,1c0.5,0.3,0.8,0.9,0.8,1.8l-1.9-1C83.9,158.7,83.6,158,83.1,157.8z"/>
			</g>
			<g>
				<path class="st7" d="M87.7,150.6l1.9,1c-1.2-0.7-2.8-0.9-4.7-0.6l-1.9-1C84.9,149.7,86.4,149.9,87.7,150.6z"/>
			</g>
			<g>
				<polygon class="st7" points="78.9,151.8 76.9,150.8 82.9,150 84.9,151 				"/>
			</g>
			<g>
				<polygon class="st7" points="71.1,185.1 69.2,184.1 69.2,160.2 71.1,161.3 				"/>
			</g>
			<g>
				<path class="st8" d="M84.9,151c5-0.7,7.7,1.8,7.7,7.2l0,4.3c0,0.6-0.3,1-0.9,1l-5,0.7c-0.6,0.1-0.9-0.2-0.9-0.8l0-2.8
					c0-1.5-0.7-2.2-2.1-2l-3.4,0.5c-1.4,0.2-2.1,1.1-2.1,2.6l0,20.9c0,1.6,0.7,2.2,2.1,2l3.4-0.5c1.4-0.2,2.1-1.1,2.1-2.6l0-5
					l-2.8,0.4c-0.6,0.1-0.9-0.2-0.9-0.8l0-5.8c0-0.6,0.3-1,0.9-1l8.7-1.2c0.5-0.1,0.9,0.2,0.9,0.8l0,13.2c0,5.4-2.8,8.7-7.7,9.4
					l-6,0.8c-5,0.7-7.7-1.8-7.7-7.2l0-23.8c0-5.4,2.7-8.7,7.7-9.4L84.9,151z"/>
			</g>
			<g>
				<path class="st7" d="M71.1,161.3l-1.9-1c0-5.4,2.7-8.7,7.7-9.4l1.9,1C73.8,152.5,71.1,155.8,71.1,161.3z"/>
			</g>
		</g>
		<g class="st6">
			<g>
				<path class="st7" d="M117,186.8l-1.9-1c-0.2-0.1-0.3-0.3-0.4-0.6l1.9,1C116.6,186.5,116.8,186.7,117,186.8z"/>
			</g>
			<g>
				<polygon class="st7" points="116.6,186.2 114.7,185.2 113,178.1 114.9,179.2 				"/>
			</g>
			<g>
				<polygon class="st7" points="106.5,173.6 104.6,172.6 111.3,171.7 113.2,172.7 				"/>
			</g>
			<g>
				<path class="st7" d="M96.5,189.7l-1.9-1c-0.2-0.1-0.3-0.4-0.2-0.8l1.9,1C96.2,189.3,96.3,189.6,96.5,189.7z"/>
			</g>
			<g>
				<polygon class="st7" points="113.2,172.7 111.3,171.7 108,156.4 109.9,157.4 				"/>
			</g>
			<g>
				<path class="st7" d="M112.3,146l1.9,1c-0.1-0.1-0.3-0.1-0.5-0.1l-1.9-1C111.9,145.9,112.1,145.9,112.3,146z"/>
			</g>
			<g>
				<polygon class="st7" points="106.2,148 104.3,147 111.7,145.9 113.6,146.9 				"/>
			</g>
			<g>
				<polygon class="st7" points="96.3,188.9 94.4,187.9 103.4,147.9 105.3,148.9 				"/>
			</g>
			<g>
				<path class="st7" d="M105.3,148.9l-1.9-1c0.1-0.6,0.4-0.9,0.9-0.9l1.9,1C105.7,148.1,105.4,148.3,105.3,148.9z"/>
			</g>
			<g>
				<path class="st8" d="M123.4,185.1c0.2,0.6-0.1,1-0.8,1.1l-5.2,0.7c-0.5,0.1-0.8-0.2-0.9-0.7l-1.7-7.1l-10.1,1.4l-1.7,7.5
					c-0.1,0.5-0.4,0.9-0.9,0.9l-5.3,0.7c-0.6,0.1-0.9-0.2-0.7-0.9l9-40c0.1-0.6,0.4-0.9,0.9-0.9l7.5-1c0.5-0.1,0.8,0.1,0.9,0.7
					L123.4,185.1z M106.5,173.6l6.8-0.9l-3.3-15.3L106.5,173.6"/>
			</g>
		</g>
		<g class="st6">
			<g>
				<path class="st7" d="M150.5,182.1l-1.9-1c-0.3-0.2-0.4-0.5-0.4-0.9l1.9,1C150.1,181.6,150.2,181.9,150.5,182.1z"/>
			</g>
			<g>
				<path class="st7" d="M139.6,183.6l-1.9-1c-0.2-0.1-0.4-0.4-0.5-0.7l1.9,1C139.2,183.2,139.4,183.5,139.6,183.6z"/>
			</g>
			<g>
				<polygon class="st7" points="150.1,181.2 148.2,180.1 148.2,157.4 150.1,158.4 				"/>
			</g>
			<g>
				<path class="st7" d="M155,140l1.9,1c-0.2-0.1-0.4-0.1-0.7-0.1l-1.9-1C154.6,139.9,154.8,139.9,155,140z"/>
			</g>
			<g>
				<path class="st7" d="M127.1,185.4l-1.9-1c-0.3-0.2-0.4-0.5-0.4-0.9l1.9,1C126.6,184.9,126.8,185.2,127.1,185.4z"/>
			</g>
			<g>
				<polygon class="st7" points="149.1,142 147.2,140.9 154.3,139.9 156.2,141 				"/>
			</g>
			<g>
				<polygon class="st7" points="142,169.7 140,168.7 146,142.1 148,143.1 				"/>
			</g>
			<g>
				<path class="st7" d="M148,143.1l-1.9-1c0.2-0.7,0.5-1.1,1.2-1.1l1.9,1C148.5,142,148.1,142.5,148,143.1z"/>
			</g>
			<g>
				<polygon class="st7" points="139.1,182.9 137.2,181.8 132.2,159.6 134.1,160.7 				"/>
			</g>
			<g>
				<path class="st7" d="M133.7,143l1.9,1c-0.2-0.1-0.4-0.1-0.7-0.1l-1.9-1C133.2,142.9,133.5,142.9,133.7,143z"/>
			</g>
			<g>
				<polygon class="st7" points="127.8,145 125.9,143.9 133,142.9 134.9,144 				"/>
			</g>
			<g>
				<polygon class="st7" points="126.7,184.5 124.7,183.4 124.8,145.2 126.7,146.3 				"/>
			</g>
			<g>
				<path class="st8" d="M156.2,141c0.7-0.1,1.1,0.3,1.1,1l-0.1,38.2c0,0.8-0.4,1.2-1.1,1.3l-5,0.7c-0.7,0.1-1.1-0.3-1.1-1l0-22.7
					l-0.4,0.1l-5.1,23.6c-0.2,0.7-0.5,1.1-1.2,1.1l-3.2,0.4c-0.6,0.1-1-0.2-1.2-0.8l-5-22.2l-0.4,0.1l0,22.7c0,0.8-0.4,1.2-1.1,1.3
					l-4.9,0.7c-0.7,0.1-1.1-0.3-1.1-1l0.1-38.2c0-0.8,0.4-1.2,1.1-1.3l7.1-1c0.6-0.1,1,0.2,1.2,0.8l5.9,25l6-26.6
					c0.2-0.7,0.5-1.1,1.2-1.1L156.2,141z"/>
			</g>
			<g>
				<path class="st7" d="M126.7,146.3l-1.9-1c0-0.8,0.4-1.2,1.1-1.3l1.9,1C127.1,145.1,126.7,145.5,126.7,146.3z"/>
			</g>
		</g>
		<g class="st6">
			<g>
				<path class="st7" d="M181.8,169.1l1.9,1c-0.1-0.1-0.3-0.1-0.6-0.1l-1.9-1C181.5,169,181.6,169,181.8,169.1z"/>
			</g>
			<g>
				<path class="st7" d="M178.6,153.3l1.9,1c-0.1-0.1-0.3-0.1-0.5-0.1l-1.9-1C178.3,153.2,178.4,153.2,178.6,153.3z"/>
			</g>
			<g>
				<polygon class="st7" points="169.9,171.9 168,170.9 181.2,169 183.1,170 				"/>
			</g>
			<g>
				<path class="st7" d="M162.9,180.4l-1.9-1c-0.2-0.1-0.4-0.4-0.4-0.7l1.9,1C162.6,180,162.7,180.3,162.9,180.4z"/>
			</g>
			<g>
				<path class="st7" d="M181.8,136.2l1.9,1c-0.1-0.1-0.3-0.1-0.6-0.1l-1.9-1C181.5,136.1,181.7,136.1,181.8,136.2z"/>
			</g>
			<g>
				<polygon class="st7" points="169.9,155.6 168,154.6 178.1,153.2 180,154.2 				"/>
			</g>
			<g>
				<polygon class="st7" points="163.4,139.9 161.5,138.9 181.3,136.1 183.2,137.2 				"/>
			</g>
			<g>
				<polygon class="st7" points="162.6,179.6 160.7,178.6 160.7,139.9 162.6,141 				"/>
			</g>
			<g>
				<path class="st8" d="M183.2,137.2c0.6-0.1,0.9,0.2,0.9,0.8l0,5.8c0,0.6-0.2,1-0.9,1.1l-13.2,1.9l0,8.9l10.1-1.4
					c0.5-0.1,0.9,0.2,0.9,0.9l0,5.7c0,0.6-0.3,1-0.9,1.1l-10.1,1.4l0,8.6l13.2-1.9c0.6-0.1,0.9,0.2,0.9,0.8l0,5.8c0,0.6-0.2,1-0.9,1
					l-19.7,2.8c-0.5,0.1-0.8-0.2-0.8-0.8l0.1-38.6c0-0.6,0.3-1,0.8-1L183.2,137.2z"/>
			</g>
			<g>
				<path class="st7" d="M162.6,141l-1.9-1c0-0.6,0.3-1,0.8-1l1.9,1C163,140,162.6,140.4,162.6,141z"/>
			</g>
		</g>
	</g>
	<g>
		<g class="st6">
			<g>
				<polygon class="st9" points="59.7,136 58.1,135.1 57.3,130.6 58.8,131.4 				"/>
			</g>
			<g>
				<polygon class="st9" points="53.6,122.8 52.1,122 55.6,121.5 57.1,122.3 				"/>
			</g>
			<g>
				<polygon class="st9" points="57.1,122.3 55.6,121.5 54,112.7 55.5,113.5 				"/>
			</g>
			<g>
				<polygon class="st9" points="55.5,113.5 54,112.7 53.8,111.5 55.4,112.4 				"/>
			</g>
			<g>
				<polygon class="st9" points="55.4,99.2 53.9,98.4 60.4,97.5 61.9,98.3 				"/>
			</g>
			<g>
				<polygon class="st9" points="48.9,100.1 47.4,99.3 53.9,98.4 55.4,99.2 				"/>
			</g>
			<g>
				<polygon class="st9" points="40.2,138.7 38.7,137.9 47.4,99.3 48.9,100.1 				"/>
			</g>
			<g>
				<path class="st7" d="M61.9,98.3l8.6,36.1L59.7,136l-0.9-4.6l-6.9,1l-0.8,4.8l-10.8,1.5l8.7-38.6l6.5-0.9L61.9,98.3z M53.6,122.8
					l3.5-0.5l-1.6-8.8l-0.1-1.1l-0.1,1.1L53.6,122.8"/>
			</g>
		</g>
		<g class="st6">
			<g>
				<polygon class="st9" points="86.6,122.8 85.1,122 93.8,120.8 95.3,121.6 				"/>
			</g>
			<g>
				<polygon class="st9" points="82.4,95.4 80.8,94.5 85.2,93.9 86.7,94.7 				"/>
			</g>
			<g>
				<polygon class="st9" points="73.7,134 72.1,133.2 72.2,105.1 73.7,105.9 				"/>
			</g>
			<g>
				<polygon class="st9" points="73.7,96.6 72.2,95.7 80.8,94.5 82.4,95.4 				"/>
			</g>
			<g>
				<polygon class="st9" points="73.7,105.9 72.2,105.1 72.2,95.7 73.7,96.6 				"/>
			</g>
			<g>
				<polygon class="st7" points="86.7,94.7 86.7,104.1 86.7,108.8 86.7,118.1 86.6,122.8 95.3,121.6 95.3,131 73.7,134 73.7,105.9 
					73.7,96.6 82.4,95.4 				"/>
			</g>
		</g>
		<g class="st6">
			<g>
				<polygon class="st9" points="112.4,119.2 110.9,118.4 119.5,117.1 121.1,118 				"/>
			</g>
			<g>
				<polygon class="st9" points="112.4,105.2 110.9,104.3 119.6,103.1 121.1,104 				"/>
			</g>
			<g>
				<polygon class="st9" points="99.4,130.4 97.8,129.5 97.8,120.2 99.4,121 				"/>
			</g>
			<g>
				<polygon class="st9" points="99.4,121 97.8,120.2 97.9,92.1 99.4,93 				"/>
			</g>
			<g>
				<polygon class="st9" points="99.4,93 97.9,92.1 119.6,89.1 121.1,89.9 				"/>
			</g>
			<g>
				<polygon class="st7" points="121.1,89.9 121.1,99.3 112.4,100.5 112.4,105.2 121.1,104 121.1,113.3 112.4,114.5 112.4,119.2 
					121.1,118 121,127.3 112.4,128.6 108,129.2 99.4,130.4 99.4,121 99.4,93 				"/>
			</g>
		</g>
		<g class="st6">
			<g>
				<path d="M154.1,103l1.5,0.8c-0.1,0-0.1-0.1-0.2-0.1l-1.5-0.8C154,103,154.1,103,154.1,103z"/>
			</g>
			<g>
				<polygon class="st9" points="145.4,123.9 143.8,123 143.9,113.7 145.4,114.5 				"/>
			</g>
			<g>
				<polygon class="st9" points="145.4,114.5 143.9,113.7 143.9,112.9 145.4,113.8 				"/>
			</g>
			<g>
				<path class="st9" d="M142.6,109.8l1.5,0.8c0.1,0.1,0.3,0.2,0.4,0.2c0.6,0.5,0.9,1.5,0.9,2.9l-1.5-0.8c0-1.4-0.3-2.4-0.9-2.9
					C142.9,110,142.8,109.9,142.6,109.8z"/>
			</g>
			<g>
				<path class="st9" d="M143.1,96.4l1.5,0.8c0.5,0.3,0.8,0.8,0.8,1.7c0,0.9-0.3,1.6-0.9,2l-1.5-0.8c0.6-0.4,0.9-1.1,0.9-2
					C143.9,97.3,143.6,96.7,143.1,96.4z"/>
			</g>
			<g>
				<path class="st9" d="M141.8,101.8l-1.5-0.8c1.3-0.2,2.2-0.5,2.8-0.9l1.5,0.8C144,101.3,143,101.6,141.8,101.8z"/>
			</g>
			<g>
				<polygon class="st9" points="141.1,101.9 139.5,101 140.2,101 141.8,101.8 				"/>
			</g>
			<g>
				<path class="st9" d="M153.2,86.1l1.5,0.8c-1.7-0.9-4.1-1.2-7.1-0.7l-1.5-0.8C149.1,84.9,151.5,85.2,153.2,86.1z"/>
			</g>
			<g>
				<polygon class="st9" points="128.1,126.3 126.5,125.5 126.6,116.1 128.1,117 				"/>
			</g>
			<g>
				<polygon class="st9" points="128.1,117 126.6,116.1 126.6,111.5 128.1,112.3 				"/>
			</g>
			<g>
				<polygon class="st9" points="128.1,112.3 126.6,111.5 126.6,106.8 128.1,107.6 				"/>
			</g>
			<g>
				<polygon class="st9" points="136.8,87.7 135.2,86.9 146.1,85.3 147.6,86.2 				"/>
			</g>
			<g>
				<polygon class="st9" points="128.1,107.6 126.6,106.8 126.6,102.1 128.1,103 				"/>
			</g>
			<g>
				<polygon class="st9" points="128.1,103 126.6,102.1 126.6,97.4 128.1,98.3 				"/>
			</g>
			<g>
				<polygon class="st9" points="128.1,98.3 126.6,97.4 126.6,88.1 128.1,88.9 				"/>
			</g>
			<g>
				<path class="st7" d="M158.2,108c0.1,0.4,0.1,0.7,0.1,1.1c0,0.3,0,0.7,0.1,1.2c0,0.8,0,1.6,0,2.4c0,2.4,0,4.5,0,6.3
					c0,1.8,0,2.9,0,3c-1.3,0.2-2.5,0.4-3.6,0.5c-1.2,0.2-2.4,0.3-3.7,0.5c-1.4,0.2-2.6,0.4-3.6,0.5l-2.2,0.3l0-9.4v-0.8
					c0-1.4-0.3-2.4-0.9-2.9c-0.6-0.5-1.5-0.7-2.8-0.5l-0.7,0.1l0,4.6l0,9.4l-4.3,0.6l-8.6,1.2l0-9.4l0-4.6l0-4.7l0-4.7l0-4.7l0-9.4
					l8.6-1.2l10.8-1.5c3.9-0.5,6.7,0,8.3,1.6c1.7,1.6,2.5,4.5,2.5,8.7c0,0.4-0.1,0.8-0.1,1.2c0,0.4-0.1,0.7-0.1,1.1
					c-0.1,0.9-0.3,1.6-0.6,2.2c-0.3,0.6-0.6,1.2-0.9,1.6c-0.3,0.4-0.8,0.8-1.2,1.2c0.5,0.3,0.9,0.5,1.2,0.8c0.3,0.3,0.6,0.7,0.9,1.3
					C158,106.4,158.1,107.1,158.2,108z M144.5,100.9c0.6-0.4,0.9-1.1,0.9-2c0-0.9-0.3-1.5-0.9-1.7c-0.6-0.2-1.5-0.3-2.8-0.1
					l-0.7,0.1l0,2.3l0,2.3l0.7-0.1C143,101.6,144,101.3,144.5,100.9"/>
			</g>
			<g>
				<polygon class="st9" points="128.1,88.9 126.6,88.1 135.2,86.9 136.8,87.7 				"/>
			</g>
		</g>
		<g class="st6">
			<g>
				<polygon class="st9" points="169.1,120.5 167.6,119.7 167.6,110.4 169.1,111.2 				"/>
			</g>
			<g>
				<polygon class="st9" points="169.1,111.2 167.6,110.4 167.6,105.7 169.2,106.5 				"/>
			</g>
			<g>
				<polygon class="st9" points="182.2,81.3 180.7,80.5 189.3,79.3 190.9,80.1 				"/>
			</g>
			<g>
				<polygon class="st9" points="169.2,106.5 167.6,105.7 167.6,96.4 169.2,97.2 				"/>
			</g>
			<g>
				<polygon class="st9" points="169.2,97.2 167.6,96.4 167.6,91.7 169.2,92.5 				"/>
			</g>
			<g>
				<polygon class="st9" points="160.5,84.4 159,83.5 180.7,80.5 182.2,81.3 				"/>
			</g>
			<g>
				<polygon class="st9" points="160.5,93.7 159,92.9 159,83.5 160.5,84.4 				"/>
			</g>
			<g>
				<polygon class="st7" points="190.9,80.1 190.9,89.5 182.2,90.7 182.1,109.4 182.1,118.7 173.5,119.9 169.1,120.5 169.1,111.2 
					169.2,106.5 169.2,97.2 169.2,92.5 160.5,93.7 160.5,84.4 182.2,81.3 				"/>
			</g>
		</g>
	</g>
</g>
</svg>
